<svg xmlns="http://www.w3.org/2000/svg" width="109.742" height="231.121" viewBox="0 0 1091.742 231.121">
  <g id="logo-horizontal" transform="translate(-2108.48 -59)">
    <path id="Path_19" data-name="Path 19" d="M303.752,135.094a31.434,31.434,0,0,1-31.43-31.428,103.675,103.675,0,0,0-159.112-87.6,94.605,94.605,0,1,1,13.55,188.111,95.439,95.439,0,0,1-14.307-1.07,127.586,127.586,0,0,0,204.066-70.773A31.232,31.232,0,0,1,303.752,135.094Z" transform="translate(2076.241 59)" fill="#ffffff"/>
    <path id="Path_20" data-name="Path 20" d="M32.586,113.984a31.862,31.862,0,0,0,.243-3.887A102.942,102.942,0,0,1,63.179,36.82,104.622,104.622,0,0,1,80.968,22.554a94.555,94.555,0,0,0-.713,187.041,131.656,131.656,0,0,1-10.371-9.316A126.633,126.633,0,0,1,32.586,113.984Z" transform="translate(2108.48 52.535)" fill="#ffffff"/>
    <path id="Path_22" data-name="Path 22" d="M103.756-80.945q.729-2.454,2.673-2.454H124.9a2.169,2.169,0,0,1,2.454,2.454V29.5a2.169,2.169,0,0,1-2.454,2.454H106.184q-1.944,0-2.673-2.454l-3.4-13.008a43.021,43.021,0,0,1-15.34,13.376q-9.2,4.786-21.476,4.786a62.925,62.925,0,0,1-23.685-4.3A51.459,51.459,0,0,1,21.324,18.09,55.492,55.492,0,0,1,9.542-1.055,69.254,69.254,0,0,1,5.37-25.476,68.976,68.976,0,0,1,9.542-50.02a54.417,54.417,0,0,1,11.781-18.9A52.262,52.262,0,0,1,39.609-81.068a62.925,62.925,0,0,1,23.685-4.3,47.985,47.985,0,0,1,21.476,4.541,40.829,40.829,0,0,1,15.34,13.131ZM33.1-25.476q0,14.481,8.836,23.439T65.012,6.922q14.726,0,23.685-8.836t9.2-23.562Q97.655-40.2,88.7-48.915T65.012-57.628q-14.481,0-23.194,8.713T33.1-25.476ZM247.829-80.945q.729-2.454,2.673-2.454h18.469a2.169,2.169,0,0,1,2.454,2.454V29.5a2.169,2.169,0,0,1-2.454,2.454H250.256q-1.944,0-2.673-2.454l-3.4-13.008a43.021,43.021,0,0,1-15.34,13.376q-9.2,4.786-21.476,4.786a62.925,62.925,0,0,1-23.685-4.3A51.459,51.459,0,0,1,165.4,18.09,55.492,55.492,0,0,1,153.615-1.055a69.255,69.255,0,0,1-4.172-24.421,68.976,68.976,0,0,1,4.172-24.544,54.418,54.418,0,0,1,11.781-18.9,52.262,52.262,0,0,1,18.285-12.149,62.925,62.925,0,0,1,23.685-4.3,47.985,47.985,0,0,1,21.476,4.541,40.829,40.829,0,0,1,15.34,13.131ZM177.177-25.476q0,14.481,8.836,23.439t23.071,8.959q14.726,0,23.685-8.836t9.2-23.562q-.245-14.726-9.2-23.439t-23.685-8.713q-14.481,0-23.194,8.713T177.177-25.476Zm125.91,57.433a2.169,2.169,0,0,1-2.454-2.454V-80.7q0-2.209,2.454-2.7H321.25q2.454,0,2.945,2.7l2.7,12.272a37.343,37.343,0,0,1,13.254-13.008q8.1-4.663,19.881-4.663a38.072,38.072,0,0,1,20.862,5.768,37.125,37.125,0,0,1,13.99,16.813A44.254,44.254,0,0,1,409.73-80.086q9.2-6.013,22.458-6.013,18.408,0,29.7,13.5t11.29,38.043V29.5q0,2.454-2.209,2.454H447.9q-2.7,0-2.7-2.454V-29.4q0-28.471-20.126-28.471-7.363,0-12.026,3.436a24.542,24.542,0,0,0-7.363,8.713,40.656,40.656,0,0,0-3.8,11.658,71.976,71.976,0,0,0-1.1,12.272V29.5q0,2.454-2.209,2.454H375.246a2.169,2.169,0,0,1-2.454-2.454V-29.4q0-28.471-20.126-28.471A18.938,18.938,0,0,0,341.5-54.683a25.425,25.425,0,0,0-7.363,7.977,34.837,34.837,0,0,0-4.05,10.677,71.823,71.823,0,0,0-1.473,11.536v54a2.169,2.169,0,0,1-2.454,2.454Zm199.787,57.1A2.169,2.169,0,0,1,500.42,86.6V-80.7q0-2.7,2.454-2.7h16.2a3.334,3.334,0,0,1,3.191,2.454l3.682,13.5a42.174,42.174,0,0,1,15.34-13.622q9.2-4.786,21.721-4.786a62.3,62.3,0,0,1,23.808,4.418,52.6,52.6,0,0,1,18.408,12.395A55.725,55.725,0,0,1,617-50.02a68.975,68.975,0,0,1,4.172,24.544A68.975,68.975,0,0,1,617-.932a54.418,54.418,0,0,1-11.781,18.9,53.433,53.433,0,0,1-18.408,12.272,62.3,62.3,0,0,1-23.808,4.418,47.327,47.327,0,0,1-20-4.013,38.932,38.932,0,0,1-14.6-11.557V86.6a2.169,2.169,0,0,1-2.454,2.454ZM528.645-25.6q0,14.784,8.958,23.652t23.685,8.868q14.481,0,23.317-8.746t8.836-23.53q0-14.78-8.836-23.773t-23.317-8.993q-14.726,0-23.685,8.993T528.645-25.6Zm197.333-9.695a29.589,29.589,0,0,0-9.94-17.3q-7.731-6.5-20.494-6.5t-20.494,6.5a29.59,29.59,0,0,0-9.94,17.3ZM665.6-14.431A29.206,29.206,0,0,0,676.767,2.136q8.468,6.259,21.721,6.259a48.361,48.361,0,0,0,15.463-2.7,31.489,31.489,0,0,0,10.8-6.381,3.929,3.929,0,0,1,2.454-.982,2.355,2.355,0,0,1,1.718.736L743.4,14.04a2.527,2.527,0,0,1,.245,3.682,48.5,48.5,0,0,1-19.88,12.64,82.06,82.06,0,0,1-26.753,4.05,69.9,69.9,0,0,1-25.035-4.3,54.871,54.871,0,0,1-19.267-12.149A54.62,54.62,0,0,1,640.32-.932,65.546,65.546,0,0,1,635.9-25.476a67.208,67.208,0,0,1,4.3-24.544,54.057,54.057,0,0,1,12.149-18.9,54.057,54.057,0,0,1,18.9-12.149,66.5,66.5,0,0,1,24.3-4.3,70.857,70.857,0,0,1,24.544,4.05,47.863,47.863,0,0,1,18.9,12.517,56.437,56.437,0,0,1,12.027,21.353q4.173,12.886,4.172,30.557a2.169,2.169,0,0,1-2.454,2.454Z" transform="translate(2445.037 201.066)" fill="#ffffff"/>
  </g>
</svg>
