<svg xmlns="http://www.w3.org/2000/svg" viewBox="0 0 251.48 84.88"><defs><style>.cls-1{fill:#ffffff;}.cls-1,.cls-2{fill-rule:evenodd;}.cls-2{fill:#ffffff;}</style></defs><title>Asset 1WebAssets</title><g id="Layer_2" data-name="Layer 2"><g id="Layer_1-2" data-name="Layer 1"><path class="cls-1" d="M115.52,84.88q-18,0-29.87-12.42A41.38,41.38,0,0,1,73.76,42.85,41.54,41.54,0,0,1,94.55,6.55,40.82,40.82,0,0,1,115.41.89a39.74,39.74,0,0,1,29.22,12.27,40.86,40.86,0,0,1,12.22,30,40.78,40.78,0,0,1-6.09,22L140.2,51.56A28.58,28.58,0,0,0,141.48,43a26.69,26.69,0,0,0-7.65-19.25,24.68,24.68,0,0,0-18.47-7.92,25.09,25.09,0,0,0-18.7,7.72q-7.55,7.71-7.53,19.62,0,13.26,9.48,21a26,26,0,0,0,16.86,6H127.2L112.75,51.56h18.3Q144,68.22,156.93,84.88ZM38.65,26.16C47,47.35,53.31,63.91,61.24,84.88H77.08L46.3,4.9H31l-31,80H16.31A25.72,25.72,0,0,1,38.65,63.45v-15a40.52,40.52,0,0,0-9.47,1.92C32.14,42.75,35.2,34.93,38.65,26.16Z"/><path class="cls-2" d="M194.44,36.42A15,15,0,0,0,183,41.29a17.4,17.4,0,0,0-4.57,12.45,17.69,17.69,0,0,0,4.64,12.61,16,16,0,0,0,23,.07q4.62-4.85,4.62-12.73c0-5.15-1.54-9.3-4.62-12.5a15.54,15.54,0,0,0-11.66-4.77Zm47.52-8h7.41v55H234.55V35.88A7.43,7.43,0,0,1,242,28.47ZM242,0a9.11,9.11,0,0,1,6.68,2.82,9.28,9.28,0,0,1,2.8,6.81,9.25,9.25,0,0,1-2.76,6.74,9,9,0,0,1-6.63,2.79c-8.52,0-17.22,3.86-17.22,13.66V83.43H210.05v-6.3a29,29,0,0,1-8.72,5.93,24.76,24.76,0,0,1-9.49,1.82c-7.67,0-14.27-3-19.86-8.88s-8.37-13.25-8.37-22q0-13.68,8.11-22.41a25.87,25.87,0,0,1,19.68-8.73,25.36,25.36,0,0,1,10,2,27.41,27.41,0,0,1,8.65,6v-6.5h7c8.32,0,15.54-6.19,15.54-14.87a9.05,9.05,0,0,1,2.76-6.64A9.12,9.12,0,0,1,242,0Z"/></g></g></svg>