<?xml version="1.0" encoding="UTF-8"?> <svg xmlns="http://www.w3.org/2000/svg" width="166" height="44" viewBox="0 0 166 44" fill="none"><path d="M38.9535 26.6867C40.4639 27.077 41.3943 28.6482 40.8121 30.1174C39.2711 34.0059 36.6318 37.3707 33.1983 39.7686C28.9854 42.7107 23.864 43.9964 18.7878 43.3863C13.7115 42.7762 9.02645 40.3118 5.60499 36.452C2.18353 32.5923 0.258887 27.6003 0.189447 22.4056C0.120006 17.2109 1.91051 12.1675 5.22753 8.21475C8.54456 4.26196 13.162 1.66912 18.2201 0.919056C23.2781 0.16899 28.432 1.31282 32.722 4.13756C36.2183 6.4397 38.9466 9.73043 40.591 13.575C41.2123 15.0275 40.3241 16.6238 38.8248 17.0557C37.3255 17.4876 35.7879 16.585 35.0974 15.1651C33.8739 12.6492 31.9999 10.4962 29.6536 8.95128C26.5123 6.88293 22.7385 6.04538 19.0348 6.5946C15.3312 7.14382 11.9502 9.04237 9.52133 11.9367C7.09251 14.8311 5.78145 18.5239 5.8323 22.3277C5.88314 26.1314 7.29242 29.7867 9.79772 32.6129C12.303 35.4391 15.7335 37.2436 19.4505 37.6904C23.1675 38.1371 26.9175 37.1957 30.0023 35.0413C32.3065 33.4322 34.1222 31.2283 35.2781 28.6795C35.9303 27.241 37.4432 26.2963 38.9535 26.6867Z" fill="#1064B5"></path><path d="M17.0878 14.927C14.0902 14.927 12.25 17.5921 12.25 19.7774C12.25 24.5031 17.5347 28.8903 21.2656 31.6822C24.9965 28.8893 30.2811 24.5031 30.2811 19.7774C30.2811 17.5919 28.4418 14.927 25.4434 14.927C23.7691 14.927 22.3382 16.2841 21.2656 17.5725C20.1919 16.2839 18.7621 14.927 17.0878 14.927Z" fill="#05D5B5"></path><path d="M51.9883 21.4569C51.9883 19.8666 52.3407 18.4461 53.0457 17.1955C53.7659 15.9294 54.739 14.949 55.965 14.2542C57.2063 13.5439 58.5931 13.1888 60.1256 13.1888C61.9185 13.1888 63.4893 13.652 64.8379 14.5784C66.1864 15.5048 67.1289 16.7863 67.6652 18.423H63.9644C63.5966 17.651 63.0755 17.072 62.4013 16.686C61.7423 16.3 60.9761 16.107 60.1026 16.107C59.1678 16.107 58.3326 16.3309 57.597 16.7786C56.8768 17.2109 56.3098 17.8285 55.896 18.6314C55.4976 19.4343 55.2984 20.3761 55.2984 21.4569C55.2984 22.5223 55.4976 23.4641 55.896 24.2824C56.3098 25.0853 56.8768 25.7106 57.597 26.1584C58.3326 26.5907 59.1678 26.8068 60.1026 26.8068C60.9761 26.8068 61.7423 26.6138 62.4013 26.2278C63.0755 25.8264 63.5966 25.2397 63.9644 24.4677H67.6652C67.1289 26.1198 66.1864 27.409 64.8379 28.3354C63.5046 29.2464 61.9339 29.7018 60.1256 29.7018C58.5931 29.7018 57.2063 29.3544 55.965 28.6596C54.739 27.9494 53.7659 26.969 53.0457 25.7183C52.3407 24.4677 51.9883 23.0472 51.9883 21.4569Z" fill="#151515"></path><path d="M74.9193 29.7713C73.6934 29.7713 72.59 29.5011 71.6092 28.9607C70.6285 28.4049 69.8546 27.6252 69.2876 26.6216C68.7359 25.618 68.4601 24.46 68.4601 23.1476C68.4601 21.8352 68.7436 20.6772 69.3106 19.6736C69.8929 18.67 70.6821 17.898 71.6782 17.3576C72.6743 16.8018 73.7853 16.5239 75.0113 16.5239C76.2372 16.5239 77.3483 16.8018 78.3443 17.3576C79.3404 17.898 80.122 18.67 80.689 19.6736C81.2713 20.6772 81.5625 21.8352 81.5625 23.1476C81.5625 24.46 81.2637 25.618 80.666 26.6216C80.0837 27.6252 79.2868 28.4049 78.2754 28.9607C77.2793 29.5011 76.1606 29.7713 74.9193 29.7713ZM74.9193 26.9458C75.5017 26.9458 76.0457 26.8068 76.5514 26.5289C77.0724 26.2356 77.4862 25.8032 77.7927 25.232C78.0992 24.6607 78.2524 23.9659 78.2524 23.1476C78.2524 21.9278 77.9306 20.9937 77.287 20.3452C76.6587 19.6813 75.8848 19.3494 74.9653 19.3494C74.0458 19.3494 73.2719 19.6813 72.6436 20.3452C72.0307 20.9937 71.7242 21.9278 71.7242 23.1476C71.7242 24.3673 72.023 25.3092 72.6207 25.9731C73.2336 26.6216 73.9999 26.9458 74.9193 26.9458Z" fill="#151515"></path><path d="M85.9919 12.4246V29.5629H82.7738V12.4246H85.9919Z" fill="#151515"></path><path d="M89.4243 15.2037C88.8573 15.2037 88.3822 15.0262 87.9991 14.6711C87.6313 14.3005 87.4474 13.845 87.4474 13.3046C87.4474 12.7642 87.6313 12.3165 87.9991 11.9614C88.3822 11.5908 88.8573 11.4055 89.4243 11.4055C89.9913 11.4055 90.4587 11.5908 90.8265 11.9614C91.2096 12.3165 91.4012 12.7642 91.4012 13.3046C91.4012 13.845 91.2096 14.3005 90.8265 14.6711C90.4587 15.0262 89.9913 15.2037 89.4243 15.2037ZM91.0104 16.7323V29.5629H87.7922V16.7323H91.0104Z" fill="#151515"></path><path d="M97.7988 16.5239C98.7489 16.5239 99.5841 16.7169 100.304 17.1028C101.025 17.4734 101.592 17.9598 102.005 18.5619V16.7323H105.247V29.6555C105.247 30.8444 105.009 31.902 104.534 32.8284C104.059 33.7702 103.346 34.5114 102.396 35.0518C101.446 35.6076 100.297 35.8855 98.9482 35.8855C97.1399 35.8855 95.6534 35.4609 94.4887 34.6117C93.3394 33.7625 92.6881 32.6045 92.5349 31.1377H95.73C95.8986 31.7245 96.2587 32.1877 96.8104 32.5273C97.3774 32.8825 98.0593 33.06 98.8562 33.06C99.791 33.06 100.55 32.7744 101.132 32.2031C101.714 31.6473 102.005 30.7981 102.005 29.6555V27.6638C101.592 28.2659 101.017 28.7677 100.281 29.1692C99.5611 29.5706 98.7336 29.7713 97.7988 29.7713C96.7261 29.7713 95.7453 29.4934 94.8565 28.9376C93.9677 28.3817 93.2628 27.602 92.7418 26.5984C92.236 25.5794 91.9832 24.4137 91.9832 23.1013C91.9832 21.8043 92.236 20.654 92.7418 19.6504C93.2628 18.6468 93.9601 17.8748 94.8335 17.3344C95.7224 16.7941 96.7108 16.5239 97.7988 16.5239ZM102.005 23.1476C102.005 22.3601 101.852 21.6885 101.546 21.1327C101.239 20.5614 100.825 20.1291 100.304 19.8357C99.7834 19.5269 99.224 19.3725 98.6264 19.3725C98.0287 19.3725 97.477 19.5192 96.9713 19.8126C96.4656 20.1059 96.0518 20.5382 95.73 21.1095C95.4235 21.6653 95.2703 22.3293 95.2703 23.1013C95.2703 23.8733 95.4235 24.5526 95.73 25.1393C96.0518 25.7106 96.4656 26.1506 96.9713 26.4594C97.4923 26.7682 98.044 26.9226 98.6264 26.9226C99.224 26.9226 99.7834 26.776 100.304 26.4826C100.825 26.1738 101.239 25.7415 101.546 25.1856C101.852 24.6144 102.005 23.935 102.005 23.1476Z" fill="#151515"></path><path d="M112.665 29.7713C111.439 29.7713 110.336 29.5011 109.355 28.9607C108.374 28.4049 107.6 27.6252 107.033 26.6216C106.482 25.618 106.206 24.46 106.206 23.1476C106.206 21.8352 106.489 20.6772 107.056 19.6736C107.639 18.67 108.428 17.898 109.424 17.3576C110.42 16.8018 111.531 16.5239 112.757 16.5239C113.983 16.5239 115.094 16.8018 116.09 17.3576C117.086 17.898 117.868 18.67 118.435 19.6736C119.017 20.6772 119.308 21.8352 119.308 23.1476C119.308 24.46 119.009 25.618 118.412 26.6216C117.829 27.6252 117.033 28.4049 116.021 28.9607C115.025 29.5011 113.906 29.7713 112.665 29.7713ZM112.665 26.9458C113.247 26.9458 113.791 26.8068 114.297 26.5289C114.818 26.2356 115.232 25.8032 115.538 25.232C115.845 24.6607 115.998 23.9659 115.998 23.1476C115.998 21.9278 115.676 20.9937 115.033 20.3452C114.404 19.6813 113.631 19.3494 112.711 19.3494C111.792 19.3494 111.018 19.6813 110.389 20.3452C109.776 20.9937 109.47 21.9278 109.47 23.1476C109.47 24.3673 109.769 25.3092 110.366 25.9731C110.979 26.6216 111.746 26.9458 112.665 26.9458Z" fill="#151515"></path><path d="M137.783 13.3973V29.5629H134.564V19.0483L130.266 29.5629H127.829L123.508 19.0483V29.5629H120.29V13.3973H123.945L129.048 25.4172L134.151 13.3973H137.783Z" fill="#151515"></path><path d="M151.423 22.8697C151.423 23.3329 151.393 23.7497 151.331 24.1203H142.022C142.098 25.0467 142.42 25.7724 142.987 26.2973C143.554 26.8223 144.251 27.0848 145.079 27.0848C146.274 27.0848 147.125 26.5675 147.63 25.533H151.101C150.734 26.7682 150.029 27.7873 148.987 28.5902C147.945 29.3776 146.665 29.7713 145.148 29.7713C143.922 29.7713 142.819 29.5011 141.838 28.9607C140.872 28.4049 140.114 27.6252 139.562 26.6216C139.026 25.618 138.758 24.46 138.758 23.1476C138.758 21.8197 139.026 20.654 139.562 19.6504C140.098 18.6468 140.849 17.8748 141.815 17.3344C142.78 16.7941 143.891 16.5239 145.148 16.5239C146.359 16.5239 147.439 16.7863 148.389 17.3113C149.354 17.8362 150.098 18.5851 150.619 19.5578C151.155 20.5151 151.423 21.619 151.423 22.8697ZM148.09 21.9433C148.075 21.1095 147.776 20.4456 147.194 19.9515C146.611 19.442 145.899 19.1872 145.056 19.1872C144.259 19.1872 143.585 19.4343 143.033 19.9284C142.497 20.407 142.167 21.0786 142.045 21.9433H148.09Z" fill="#151515"></path><path d="M152.485 23.1013C152.485 21.8043 152.738 20.654 153.244 19.6504C153.765 18.6468 154.469 17.8748 155.358 17.3344C156.247 16.7941 157.236 16.5239 158.324 16.5239C159.151 16.5239 159.94 16.7091 160.691 17.0797C161.442 17.4348 162.04 17.9134 162.484 18.5156V12.4246H165.748V29.5629H162.484V27.6638C162.086 28.2968 161.526 28.8063 160.806 29.1923C160.086 29.5783 159.251 29.7713 158.301 29.7713C157.228 29.7713 156.247 29.4934 155.358 28.9376C154.469 28.3817 153.765 27.602 153.244 26.5984C152.738 25.5794 152.485 24.4137 152.485 23.1013ZM162.507 23.1476C162.507 22.3601 162.354 21.6885 162.047 21.1327C161.741 20.5614 161.327 20.1291 160.806 19.8357C160.285 19.5269 159.726 19.3725 159.128 19.3725C158.53 19.3725 157.979 19.5192 157.473 19.8126C156.967 20.1059 156.554 20.5382 156.232 21.1095C155.925 21.6653 155.772 22.3293 155.772 23.1013C155.772 23.8733 155.925 24.5526 156.232 25.1393C156.554 25.7106 156.967 26.1506 157.473 26.4594C157.994 26.7682 158.546 26.9226 159.128 26.9226C159.726 26.9226 160.285 26.776 160.806 26.4826C161.327 26.1738 161.741 25.7415 162.047 25.1856C162.354 24.6144 162.507 23.935 162.507 23.1476Z" fill="#151515"></path></svg> 