<svg width="10244" height="1753" viewBox="0 0 10244 1753" fill="none" xmlns="http://www.w3.org/2000/svg">
<path d="M1578.09 857.483C1578.09 385.912 1289.41 0.0810547 603.456 0.0810547H0.386719V1714.89H603.456C1289.41 1714.89 1578.09 1329.05 1578.09 857.483ZM1220.82 857.483C1220.82 1200.44 1055.04 1434.8 586.665 1434.8H349.081V280.166H586.308C1055.04 280.166 1220.82 514.522 1220.82 857.483ZM2761.36 1103.27C2761.36 868.915 2561.29 703.151 2306.91 703.151C2238.93 702.027 2171.43 714.683 2108.47 740.356C2045.52 766.028 1988.41 804.184 1940.61 852.524C1892.8 900.864 1855.28 958.385 1830.3 1021.62C1805.33 1084.85 1793.43 1152.49 1795.31 1220.45C1792.07 1291.36 1803.71 1362.17 1829.47 1428.31C1855.22 1494.46 1894.53 1554.5 1944.86 1604.56C1995.19 1654.61 2055.43 1693.6 2121.72 1718.99C2188.01 1744.39 2258.88 1755.65 2329.78 1752.04C2477.29 1758.26 2622.51 1713.89 2741.35 1626.29V1414.79C2651.55 1485.67 2541.31 1525.76 2426.96 1529.11C2184.01 1529.11 2109.7 1389.07 2109.7 1243.31H2743.85C2754.6 1197.38 2760.47 1150.44 2761.36 1103.27ZM2469.83 1043.25C2469.87 1056.64 2468.92 1070.02 2466.97 1083.27H2121.13C2146.86 946.081 2224.03 894.637 2309.77 894.637C2330.37 892.367 2351.22 894.559 2370.89 901.064C2390.57 907.569 2408.61 918.234 2423.8 932.334C2438.98 946.435 2450.96 963.64 2458.9 982.779C2466.84 1001.92 2470.57 1022.54 2469.83 1043.25ZM4010.37 740.305H3707.41L3453.03 1374.43L3201.52 740.305H2893.19L3327.27 1720.6H3575.93L4010.37 740.305ZM4942.13 1400.5C4942.13 1269.04 4844.95 1131.85 4564.85 1077.55C4479.11 1060.4 4433.38 1040.4 4433.38 988.951C4433.38 940.365 4470.53 911.785 4556.28 911.785C4660.45 915.85 4761.88 946.338 4851.03 1000.38L4899.61 800.323C4793.34 739.596 4673.64 706.206 4551.28 703.151C4268.32 703.151 4159.71 860.341 4159.71 1017.53C4159.71 1163.29 4245.45 1297.62 4505.55 1346.2C4619.87 1366.21 4668.46 1391.93 4668.46 1449.09C4668.46 1511.61 4619.87 1540.55 4528.41 1540.55C4402.4 1536.06 4280.36 1495.38 4176.86 1423.37L4124.7 1634.5C4246.53 1710.42 4387.01 1751.1 4530.56 1752.04C4804.58 1752.04 4942.13 1612 4942.13 1400.5ZM6351.2 1714.89V1443.37H5582.35V0.0810547H5233.3V1714.89H6351.2ZM6496.96 1226.17C6496.96 1540.55 6699.89 1752.04 6959.98 1752.04C7027.55 1754.43 7094.72 1740.64 7155.87 1711.8C7217.02 1682.97 7270.4 1639.93 7311.54 1586.27L7320.47 1714.89H7617.72V740.305H7320.11L7311.18 868.915C7270.04 815.263 7216.67 772.224 7155.51 743.389C7094.36 714.553 7027.2 700.757 6959.63 703.151C6699.89 703.151 6496.96 917.501 6496.96 1226.17ZM6817.08 1226.17C6817.08 1037.54 6934.26 937.507 7062.88 937.507C7185.78 937.507 7308.68 1028.96 7308.68 1226.17C7308.68 1423.37 7185.78 1517.68 7062.88 1517.68C6934.26 1517.68 6817.08 1417.65 6817.08 1226.17ZM9000.7 1714.89V1128.99C9000.7 886.063 8894.95 703.151 8632 703.151C8557.88 703.722 8485.12 723.18 8420.61 759.685C8356.1 796.191 8301.96 848.539 8263.3 911.785L8246.15 740.305H7954.62V1714.89H8274.73V1194.73C8276.84 1132.97 8302.13 1074.28 8345.56 1030.32C8388.99 986.367 8447.37 960.373 8509.1 957.513C8623.43 957.513 8680.59 1023.25 8680.59 1180.8V1714.89H9000.7ZM10244 1103.27C10244 868.915 10043.9 703.151 9789.55 703.151C9721.57 702.027 9654.07 714.683 9591.11 740.356C9528.16 766.028 9471.05 804.184 9423.25 852.524C9375.44 900.864 9337.92 958.385 9312.94 1021.62C9287.97 1084.85 9276.06 1152.49 9277.94 1220.45C9274.71 1291.36 9286.35 1362.17 9312.1 1428.31C9337.86 1494.46 9377.17 1554.5 9427.5 1604.56C9477.83 1654.61 9538.07 1693.6 9604.36 1718.99C9670.65 1744.39 9741.52 1755.65 9812.42 1752.04C9959.93 1758.26 10105.1 1713.89 10224 1626.29V1414.79C10134.2 1485.67 10024 1525.76 9909.59 1529.11C9666.65 1529.11 9592.34 1389.07 9592.34 1243.31H10226.5C10237.2 1197.38 10243.1 1150.44 10244 1103.27ZM9952.47 1043.25C9952.51 1056.64 9951.55 1070.02 9949.61 1083.27H9603.77C9629.5 946.081 9706.67 894.637 9792.41 894.637C9813.01 892.367 9833.86 894.559 9853.53 901.064C9873.21 907.569 9891.25 918.234 9906.44 932.334C9921.62 946.435 9933.59 963.64 9941.54 982.779C9949.48 1001.92 9953.21 1022.54 9952.47 1043.25Z" fill="#292929"/>
</svg>
