<svg width="88" height="80" viewBox="0 0 88 80" fill="none" xmlns="http://www.w3.org/2000/svg">
<mask id="mask0" mask-type="alpha" maskUnits="userSpaceOnUse" x="0" y="0" width="80" height="80">
<rect width="80" height="80" rx="23" fill="black"/>
</mask>
<g mask="url(#mask0)">
<path d="M0.00447369 43.2087C8.51816 40.0762 18.8202 34.6926 26.7872 26.6211C35.8461 17.4436 40.3023 8.93193 43.1776 0.0685362H0.00447369V43.2087ZM80.0045 40.5055L64.3979 31.0448C61.6707 35.5992 57.8699 41.085 54.4799 45.0795L68.249 57.4094C72.45 52.5191 76.688 46.105 80.0045 40.5055ZM49.0232 11.0404L61.7812 18.1544C65.6402 10.9171 68.0612 2.34985 68.4765 0.00439453H52.835C52.6461 0.927298 51.621 5.28362 49.0232 11.0404ZM37.3169 29.5304L48.5717 39.5209C51.9843 35.6935 54.7326 31.5572 57.5049 26.7363L44.8995 19.0328C42.8455 22.4687 39.8481 26.51 37.3169 29.5304ZM80.0045 0.00439453H76.61C74.9329 8.21085 72.5584 15.3391 69.4862 21.3893L80.0045 26.7849V0.00439453ZM80.0045 67.7065V54.456C78.4293 57.232 76.4923 59.9448 74.1924 62.5942L80.0045 67.7065ZM41.0682 79.9999L31.5633 64.466C36.1389 61.7516 41.6503 57.9684 45.6636 54.5942L58.0512 68.2992C53.138 72.4807 46.6938 76.6989 41.0682 79.9999ZM11.6241 48.9913L18.1655 62.1686C10.8943 66.0096 2.73403 68.1116 0.377579 68.5256V52.9566C1.3048 52.7687 5.71063 51.7759 11.6241 48.9917V48.9913ZM30.0417 37.5112L40.079 48.7135C36.234 52.1103 32.078 54.8458 27.2346 57.6052L19.495 45.0584C22.9469 43.014 27.0072 40.0303 30.0417 37.5112ZM0.377579 79.9999V76.6213C8.62241 74.952 15.681 72.498 21.553 69.2589L27.2834 79.9996H0.377579V79.9999ZM68.3964 79.9999H55.0843C57.8733 78.4321 60.5988 76.5041 63.2606 74.2149L68.3964 79.9999Z" fill="black"/>
</g>
</svg>
