<svg width="165" height="32" viewBox="0 0 165 32" fill="none" xmlns="http://www.w3.org/2000/svg">
<path fill-rule="evenodd" clip-rule="evenodd" d="M5.91131 7.04846H12.7849L5.91131 0V7.04846ZM0 0.211454H3.84922V9.65639L21.7894 28.0529H31V32H0V0.211454ZM22.2705 9.163H6.32373L22.2705 25.5154V9.163ZM30.9313 26.0088H24.3326V19.2423L30.9313 26.0088ZM47.9695 10.4883C47.0961 10.4883 46.378 10.2311 45.8152 9.71694C45.2717 9.18294 45 8.53028 45 7.75896C45 6.96786 45.2717 6.3152 45.8152 5.80099C46.378 5.267 47.0961 5 47.9695 5C48.8234 5 49.5221 5.267 50.0656 5.80099C50.6284 6.3152 50.9098 6.96786 50.9098 7.75896C50.9098 8.53028 50.6284 9.18294 50.0656 9.71694C49.5221 10.2311 48.8234 10.4883 47.9695 10.4883ZM50.444 12.2089V28.7627H45.4658V12.2089H50.444ZM63.3677 12.0309C65.2697 12.0309 66.7836 12.6638 67.9093 13.9295C69.0544 15.1755 69.6269 16.8962 69.6269 19.0915V28.7627H64.6778V19.7738C64.6778 18.6663 64.3964 17.8059 63.8335 17.1928C63.2707 16.5797 62.5138 16.2732 61.5628 16.2732C60.6117 16.2732 59.8548 16.5797 59.292 17.1928C58.7291 17.8059 58.4477 18.6663 58.4477 19.7738V28.7627H53.4695V12.2089H58.4477V14.4042C58.9523 13.6724 59.6316 13.0989 60.4856 12.6836C61.3396 12.2485 62.3003 12.0309 63.3677 12.0309ZM81.5581 28.7627V24.4611H79.7822C79.2388 24.4611 78.8506 24.3523 78.6177 24.1347C78.3848 23.9172 78.2683 23.5612 78.2683 23.0667V16.4215H81.5289V12.2089H78.2683V8.17429H73.2901V12.2089H71.3104V16.4215H73.2901V23.0074C73.2901 25.0445 73.7947 26.5179 74.8039 27.4277C75.8132 28.3177 77.2203 28.7627 79.0253 28.7627H81.5581ZM99.062 20.2188C99.062 20.6935 99.0328 21.1879 98.9746 21.7021H87.7081C87.7857 22.7305 88.1059 23.5216 88.6688 24.0754C89.251 24.6094 89.9594 24.8764 90.794 24.8764C92.0361 24.8764 92.8998 24.3424 93.385 23.2744H98.6835C98.4118 24.3622 97.9169 25.3412 97.1988 26.2114C96.5001 27.0816 95.617 27.7639 94.5495 28.2583C93.4821 28.7528 92.2884 29 90.9687 29C89.3772 29 87.9604 28.6539 86.7182 27.9617C85.4761 27.2695 84.5057 26.2806 83.807 24.9951C83.1083 23.7095 82.7589 22.2064 82.7589 20.4858C82.7589 18.7651 83.0986 17.2621 83.7779 15.9765C84.4766 14.691 85.447 13.7021 86.6891 13.0099C87.9313 12.3177 89.3578 11.9716 90.9687 11.9716C92.5408 11.9716 93.9382 12.3078 95.1609 12.9802C96.3836 13.6527 97.3346 14.6119 98.0139 15.8579C98.7126 17.1038 99.062 18.5575 99.062 20.2188ZM93.9673 18.8838C93.9673 18.0136 93.6761 17.3214 93.0939 16.8072C92.5116 16.293 91.7838 16.0358 90.9105 16.0358C90.0759 16.0358 89.3675 16.2831 88.7852 16.7775C88.2224 17.2719 87.873 17.974 87.7372 18.8838H93.9673ZM108.268 12.8319C107.394 13.3461 106.666 14.0581 106.084 14.9679V12.2089H101.106V28.7627H106.084V21.0791C106.084 19.7145 106.395 18.7651 107.016 18.2312C107.637 17.6774 108.568 17.4005 109.811 17.4005H111.179V12.0309C110.111 12.0309 109.141 12.2979 108.268 12.8319ZM121.128 16.4215H118.449V28.7627H113.471V16.4215H111.666V12.2089H113.471V11.7342C113.471 9.69716 114.044 8.15451 115.189 7.10631C116.334 6.03832 118.013 5.50433 120.225 5.50433C120.594 5.50433 120.866 5.51422 121.04 5.53399V9.8356C120.089 9.77627 119.42 9.91471 119.032 10.2509C118.643 10.5871 118.449 11.1904 118.449 12.0606V12.2089H121.128V16.4215ZM125.971 27.9617C127.252 28.6539 128.688 29 130.279 29C131.871 29 133.307 28.6539 134.588 27.9617C135.888 27.2695 136.907 26.2806 137.645 24.9951C138.402 23.6897 138.78 22.1867 138.78 20.4858C138.78 18.7849 138.411 17.2917 137.674 16.0062C136.936 14.7009 135.927 13.7021 134.646 13.0099C133.365 12.3177 131.929 11.9716 130.337 11.9716C128.746 11.9716 127.31 12.3177 126.029 13.0099C124.748 13.7021 123.739 14.7009 123.001 16.0062C122.264 17.2917 121.895 18.7849 121.895 20.4858C121.895 22.2064 122.254 23.7095 122.972 24.9951C123.709 26.2806 124.709 27.2695 125.971 27.9617ZM132.696 23.5414C132.036 24.2534 131.23 24.6094 130.279 24.6094C129.328 24.6094 128.532 24.2534 127.892 23.5414C127.271 22.8294 126.96 21.8109 126.96 20.4858C126.96 19.1409 127.281 18.1224 127.921 17.4302C128.562 16.7182 129.367 16.3622 130.337 16.3622C131.288 16.3622 132.084 16.7182 132.725 17.4302C133.385 18.1422 133.714 19.1607 133.714 20.4858C133.714 21.8109 133.375 22.8294 132.696 23.5414ZM145.817 6.80964V28.7627H140.839V6.80964H145.817ZM148.784 15.9765C148.163 17.2621 147.853 18.7553 147.853 20.4561C147.853 22.157 148.163 23.6601 148.784 24.9654C149.425 26.2509 150.288 27.2497 151.375 27.9617C152.462 28.6539 153.675 29 155.014 29C156.16 29 157.159 28.7627 158.013 28.288C158.886 27.8134 159.556 27.1805 160.022 26.3894V28.7627H165V6.80964H160.022V14.4932C159.517 13.7219 158.818 13.1088 157.926 12.6539C157.052 12.199 156.082 11.9716 155.014 11.9716C153.675 11.9716 152.462 12.3177 151.375 13.0099C150.288 13.7021 149.425 14.691 148.784 15.9765ZM158.974 17.4895C159.672 18.2213 160.022 19.22 160.022 20.4858C160.022 21.7515 159.672 22.7503 158.974 23.4821C158.294 24.2138 157.46 24.5797 156.47 24.5797C155.48 24.5797 154.636 24.2138 153.937 23.4821C153.258 22.7305 152.918 21.7219 152.918 20.4561C152.918 19.1904 153.258 18.2015 153.937 17.4895C154.636 16.7577 155.48 16.3918 156.47 16.3918C157.46 16.3918 158.294 16.7577 158.974 17.4895Z" fill="white"/>
</svg>
