<svg width="2199" height="2304" viewBox="0 0 2199 2304" fill="none" xmlns="http://www.w3.org/2000/svg">
<path d="M1884.15 794.794L1576.09 1102.74L737.849 264.545L971.772 30.6346C981.501 20.9047 993.05 13.1864 1005.76 7.92055C1018.47 2.65467 1032.1 -0.0556641 1045.86 -0.0556641C1059.62 -0.0556641 1073.24 2.65467 1085.96 7.92055C1098.67 13.1864 1110.22 20.9047 1119.95 30.6346L1884.15 794.794Z" fill="#292929"/>
<path d="M2198.45 1151.96V1152.67C2198.45 1154.1 2198.45 1155.53 2198.45 1156.96C2197.12 1182.79 2186.23 1207.2 2167.91 1225.46L1933.27 1460.08L1120.48 2272.83C1116.68 2276.62 1112.63 2280.14 1108.34 2283.37C1105.46 2285.43 1102.48 2287.33 1099.41 2289.09L1094.85 2291.67L1090.3 2294L1083.33 2296.95C1080.97 2297.89 1078.55 2298.69 1076.09 2299.36C1056.62 2305.1 1035.9 2305.1 1016.43 2299.36C1009.91 2297.43 1003.6 2294.85 997.585 2291.67C988.237 2286.73 979.684 2280.41 972.217 2272.92L738.296 2038.92L1625.66 1151.69L1933.72 843.56L2168.18 1078.18C2186.51 1096.44 2197.39 1120.85 2198.72 1146.69C2198.45 1148.56 2198.45 1150.35 2198.45 1151.96Z" fill="#292929"/>
<path d="M205.43 918.493L406.75 1119.8L954.622 571.959L801.711 419.055C788.866 406.228 771.455 399.023 753.301 399.023C735.147 399.023 717.736 406.228 704.891 419.055L205.43 918.493Z" fill="#292929"/>
<path d="M0 1151.96V1152.4C0 1153.38 0 1154.28 0 1155.17C0.894494 1172.01 7.98967 1187.91 19.9177 1199.83L173.186 1353.09L704.713 1884.59C707.204 1887.03 709.86 1889.3 712.662 1891.37C714.538 1892.71 716.413 1893.96 718.378 1895.12L721.326 1896.91L724.363 1898.34L729.007 1900.31C730.557 1900.92 732.137 1901.46 733.741 1901.92C745.557 1905.45 758.109 1905.7 770.062 1902.67C782.014 1899.63 792.921 1893.41 801.622 1884.67L954.533 1731.77L375.132 1152.13L173.365 950.734L20.0071 1103.91C8.07898 1115.82 0.983811 1131.73 0.0893172 1148.56C0 1149.81 0 1150.88 0 1151.96Z" fill="#292929"/>
<path d="M1998.83 2303.91C2109.08 2303.91 2198.45 2214.54 2198.45 2104.3C2198.45 1994.05 2109.08 1904.68 1998.83 1904.68C1888.58 1904.68 1799.21 1994.05 1799.21 2104.3C1799.21 2214.54 1888.58 2303.91 1998.83 2303.91Z" fill="#292929"/>
</svg>
