<svg width="102" height="36" viewBox="0 0 102 36" fill="none" xmlns="http://www.w3.org/2000/svg">
<path fill-rule="evenodd" clip-rule="evenodd" d="M19.065 9.10111C17.8203 9.25547 16.6616 8.90768 15.7588 8.23555V8.2375C15.5517 8.08315 15.4364 7.83696 15.4364 7.581V1.55919C15.4364 1.30128 15.5536 1.05509 15.7607 0.900732C16.5209 0.334111 17.4627 0 18.4827 0C21.1774 0 23.3268 2.33292 23.0239 5.08787C22.7953 7.16287 21.1383 8.84515 19.065 9.10111ZM11.1863 12.2644C11.5322 11.942 11.837 11.5551 12.0813 11.1097C13.0896 9.27303 12.6949 6.93816 11.1375 5.53724C9.08574 3.69279 5.95145 4.06402 4.37257 6.23672C4.20453 6.46728 4.06188 6.70956 3.94268 6.95965C3.76877 7.32307 3.87429 7.75878 4.20062 7.9952L10.1487 12.3152C10.4633 12.5438 10.903 12.5301 11.1863 12.2624V12.2644ZM29.1439 15.0624C31.667 15.0624 33.7124 13.0172 33.7124 10.4942C33.7124 7.97132 31.667 5.9261 29.1439 5.9261C26.6207 5.9261 24.5753 7.97132 24.5753 10.4942C24.5753 13.0172 26.6207 15.0624 29.1439 15.0624ZM27.0688 19.017C26.9516 18.4992 27.3443 18.0029 27.8778 18.0029H35.1703C35.7038 18.0029 36.0965 18.4973 35.9793 19.017C35.5181 21.051 33.6989 22.5711 31.5241 22.5711C29.3492 22.5711 27.53 21.051 27.0688 19.017ZM11.4285 25.5058C11.4285 28.0287 9.38311 30.0739 6.85996 30.0739C4.33682 30.0739 2.2914 28.0287 2.2914 25.5058C2.2914 22.9829 4.33682 20.9376 6.85996 20.9376C9.38311 20.9376 11.4285 22.9829 11.4285 25.5058ZM24.8157 23.7375C24.4699 24.0599 24.165 24.4468 23.9208 24.8923C22.9125 26.7289 23.3072 29.0638 24.8646 30.4647C26.9163 32.3091 30.0506 31.9379 31.6295 29.7652C31.7976 29.5347 31.9402 29.2924 32.0594 29.0423C32.2333 28.6789 32.1278 28.2432 31.8015 28.0067L25.8533 23.6867C25.5387 23.4581 25.0991 23.4718 24.8157 23.7395V23.7375ZM16.937 26.8989C18.1817 26.7445 19.3404 27.0923 20.2432 27.7645V27.7625C20.4503 27.9169 20.5656 28.163 20.5656 28.419V34.4408C20.5656 34.6987 20.4484 34.9449 20.2413 35.0993C19.4811 35.6659 18.5393 36 17.5193 36C14.8246 36 12.6752 33.6671 12.9781 30.9121C13.2067 28.8371 14.8637 27.1549 16.937 26.8989ZM8.93322 16.983C9.05047 17.5008 8.6577 17.9971 8.12425 17.9971H0.829789C0.296334 17.9971 -0.0964295 17.5027 0.0208134 16.983C0.481969 14.949 2.30314 13.4289 4.478 13.4289C6.65285 13.4289 8.47207 14.949 8.93322 16.983Z" fill="white"/>
<path fill-rule="evenodd" clip-rule="evenodd" d="M48 17.383C48 11.8099 51.9461 8 56.7879 8C61.6298 8 65.5759 11.8099 65.5759 17.383C65.5759 22.956 61.6298 26.7659 56.7879 26.7659C51.9461 26.7659 48 22.956 48 17.383ZM50.7583 17.383C50.7583 21.484 53.5047 24.1442 56.7879 24.1442C60.0712 24.1442 62.8176 21.484 62.8176 17.383C62.8176 13.2819 60.0712 10.6217 56.7879 10.6217C53.5047 10.6217 50.7583 13.2819 50.7583 17.383ZM79.0736 14.5366C80.0465 13.5597 81.2432 13.007 82.8433 13.007L82.8448 13.004C86.3786 13.004 88.996 15.8371 88.996 19.885C88.996 23.9329 86.3772 26.7659 82.8448 26.7659C81.1868 26.7659 79.9634 26.1733 78.9728 25.1314V26.2176C78.9728 26.3817 78.8393 26.5162 78.6733 26.5162H76.7425C76.5764 26.5162 76.4429 26.3832 76.4429 26.2176V8.54976C76.4429 8.38572 76.5764 8.25124 76.7425 8.25124H78.7741C78.9387 8.25124 79.0736 8.38424 79.0736 8.54976V14.5366ZM79.0751 19.8865C79.0751 22.6028 80.8309 24.2698 82.7187 24.2698C84.6065 24.2698 86.3638 22.6028 86.3638 19.8865C86.3638 17.1701 84.605 15.5031 82.7187 15.5031C80.8324 15.5031 79.0751 17.1701 79.0751 19.8865ZM74.3519 13.2568H69.5279C68.3326 13.2568 67.3642 14.2218 67.3642 15.413V26.2206C67.3642 26.3861 67.4977 26.5191 67.6638 26.5191H69.7118C69.8778 26.5191 70.0113 26.3861 70.0113 26.2206V15.8947H74.3519C74.518 15.8947 74.6514 15.7603 74.6514 15.5962V13.5553C74.6514 13.3898 74.518 13.2568 74.3519 13.2568ZM99.5339 13.2568H101.702L101.7 13.2553C101.908 13.2553 102.052 13.4607 101.982 13.6558L96.4419 28.999C96.2328 29.6138 95.957 30.1295 95.5047 30.4857C95.045 30.8463 94.4563 31 93.7029 31H91.1167C90.9521 31 90.8171 30.867 90.8171 30.7015V28.8009C90.8171 28.6369 90.9506 28.5024 91.1167 28.5024H93.5769C93.7133 28.5024 93.8141 28.4566 93.8942 28.3768C93.9788 28.294 94.0485 28.1684 94.1033 28.0073V28.0029L94.4162 27.1487L89.2793 13.6617C89.2051 13.4666 89.349 13.2568 89.5596 13.2568H91.7276C91.8522 13.2568 91.9634 13.3336 92.0079 13.4504L95.8146 23.6077L99.2491 13.4607C99.2907 13.338 99.4049 13.2568 99.5339 13.2568Z" fill="white"/>
</svg>
