<svg width="164" height="28" viewBox="0 0 164 28" fill="none" xmlns="http://www.w3.org/2000/svg">
<rect width="4.64159" height="4.6824" transform="matrix(-1 0 0 1 22.7109 4.80237)" fill="#007AFF"/>
<rect width="4.47582" height="4.51517" transform="matrix(-1 0 0 1 18.0684 0.287292)" fill="#007AFF"/>
<rect width="4.64159" height="4.51517" transform="matrix(-1 0 0 1 9.11816 0.287292)" fill="#007AFF"/>
<rect width="4.47582" height="4.51517" transform="matrix(-1 0 0 1 4.47559 0.287292)" fill="#007AFF"/>
<rect width="4.47582" height="4.6824" transform="matrix(-1 0 0 1 4.47559 4.80237)" fill="#007AFF"/>
<rect width="4.47582" height="4.6824" transform="matrix(-1 0 0 1 4.47559 18.5151)" fill="#007AFF"/>
<rect width="4.47582" height="4.51517" transform="matrix(-1 0 0 1 4.47559 23.1975)" fill="#007AFF"/>
<rect width="4.47582" height="4.51517" transform="matrix(-1 0 0 1 18.0684 9.4848)" fill="#007AFF"/>
<rect width="4.64159" height="4.51517" transform="matrix(-1 0 0 1 22.7109 9.4848)" fill="#007AFF"/>
<rect width="4.64159" height="4.51517" transform="matrix(-1 0 0 1 9.11816 13.9999)" fill="#007AFF"/>
<rect width="4.47582" height="4.51517" transform="matrix(-1 0 0 1 13.5928 13.9999)" fill="#007AFF"/>
<g clip-path="url(#clip0_2141_12659)">
<path d="M56.788 6.66414H48.8823C48.6655 6.66414 48.4653 6.71461 48.2652 6.79874C48.065 6.88287 47.8983 7.00064 47.7648 7.13525C47.6147 7.28668 47.5146 7.45493 47.4312 7.64001C47.3479 7.84192 47.3145 8.04382 47.3145 8.24573V16.221H45.1963V8.26255C45.1963 7.74096 45.2964 7.25303 45.4798 6.81556C45.68 6.36128 45.9302 5.97429 46.2804 5.63778C46.614 5.30127 47.0143 5.03207 47.4479 4.83016C47.8983 4.62826 48.3819 4.54413 48.8823 4.54413H56.788V6.66414Z" fill="white"/>
<path d="M60.5933 16.2378H58.4912V4.54413H60.5933V16.2378Z" fill="white"/>
<path d="M84.9591 11.5603C85.0925 12.0314 85.326 12.4689 85.6429 12.839C85.8764 13.1082 86.1266 13.327 86.4101 13.512C86.6936 13.6971 86.9939 13.8486 87.3274 13.9495C87.661 14.0505 88.0113 14.1009 88.3782 14.1009H95.2665V16.2378H88.3782C87.5776 16.2378 86.8271 16.0695 86.1266 15.7667C85.4261 15.447 84.8089 15.0432 84.2919 14.5047C83.7749 13.9663 83.3746 13.3606 83.0743 12.6539C82.7741 11.9473 82.624 11.1901 82.624 10.3825C82.624 9.57489 82.7741 8.81774 83.0743 8.11107C83.3746 7.4044 83.7915 6.78186 84.2919 6.26027C84.8089 5.72186 85.4261 5.30122 86.1266 4.99836C86.8271 4.67868 87.5776 4.52725 88.3782 4.52725H93.165C93.6654 4.52725 94.1491 4.6282 94.5994 4.81328C95.0497 5.01519 95.45 5.26757 95.7669 5.62091C96.1005 5.95742 96.3673 6.3444 96.5675 6.79869C96.7676 7.25298 96.851 7.74091 96.851 8.24568C96.851 8.76727 96.751 9.2552 96.5675 9.69267C96.3673 10.147 96.1172 10.5339 95.7669 10.8704C95.4333 11.207 95.0497 11.4593 94.5994 11.6612C94.1491 11.8631 93.6821 11.9473 93.165 11.9473H87.2607C86.777 11.9473 86.3934 11.5603 86.3934 11.0724V9.84409H93.165C93.3818 9.84409 93.582 9.81044 93.7655 9.72632C93.9656 9.64219 94.1324 9.52441 94.2658 9.38981C94.4159 9.23838 94.516 9.07012 94.5994 8.88504C94.6828 8.68314 94.7161 8.48123 94.7161 8.2625C94.7161 8.04377 94.6828 7.84187 94.5994 7.65679C94.516 7.45488 94.3992 7.28663 94.2658 7.15202C94.1157 7.00059 93.9489 6.89964 93.7655 6.81551C93.5653 6.73139 93.3652 6.68091 93.165 6.68091H88.3782C87.9112 6.68091 87.4776 6.76504 87.0606 6.93329C86.6603 7.10155 86.2934 7.32028 85.9765 7.62314C85.6596 7.90917 85.3927 8.24568 85.1759 8.63266C84.909 9.13743 84.7756 9.69267 84.7756 10.2479V10.332C84.7756 10.6854 84.8256 11.0387 84.9257 11.392L84.9591 11.5603Z" fill="white"/>
<path d="M112.645 4.54413L106.241 16.2378H103.839L97.4844 4.54413H99.9362L105.04 14.0169L110.177 4.54413H112.645Z" fill="white"/>
<path d="M150.823 16.2379H150.306C149.789 16.2379 149.305 16.1369 148.872 15.9518C148.421 15.7499 148.038 15.4976 147.704 15.1611C147.371 14.8245 147.104 14.4207 146.904 13.9833C146.704 13.529 146.62 13.041 146.62 12.5363V0.287354H148.722V12.5195C148.722 12.7382 148.755 12.9569 148.838 13.142C148.922 13.3271 149.039 13.4953 149.172 13.6468C149.322 13.7982 149.489 13.8991 149.672 13.9833C149.872 14.0674 150.073 14.101 150.289 14.101H150.806V16.2379H150.823Z" fill="white"/>
<path d="M31.4195 6.66418H29.3174V20.4947H31.4195V6.66418Z" fill="white"/>
<path d="M42.5446 8.12798C42.2444 7.42131 41.8274 6.79877 41.3104 6.27718C40.7933 5.73877 40.1762 5.31813 39.4757 5.01527C38.7752 4.69559 38.0246 4.54416 37.2241 4.54416H31.4365V6.66417H37.2241C37.7244 6.66417 38.2081 6.76512 38.6418 6.96702C39.0921 7.16893 39.4757 7.42131 39.8093 7.77465C40.1429 8.11115 40.393 8.49814 40.5932 8.95243C40.7933 9.40671 40.8767 9.87783 40.8767 10.3994C40.8767 10.921 40.7766 11.3921 40.5932 11.8464C40.393 12.2839 40.1429 12.6877 39.8093 13.0242C39.4757 13.3607 39.0921 13.6299 38.6418 13.8318C38.2081 14.0337 37.7244 14.1178 37.2241 14.1347H32.4873V16.2715H37.2241C38.0246 16.2715 38.7752 16.1201 39.4757 15.8172C40.1762 15.4975 40.7933 15.0937 41.3104 14.5553C41.8274 14.0169 42.2444 13.4112 42.5446 12.7045C42.8448 11.9978 42.9949 11.2407 42.9949 10.4331C42.9949 9.59179 42.8448 8.83465 42.5446 8.12798Z" fill="white"/>
<path d="M65.729 6.66418H63.627V16.2379H65.729V6.66418Z" fill="white"/>
<path d="M80.0565 8.12798C79.7563 7.42131 79.3393 6.79877 78.8223 6.27718C78.3052 5.73877 77.7048 5.31813 77.0043 5.01527C76.3038 4.69559 75.5532 4.54416 74.7526 4.54416H65.7461V6.66417H71.0166V16.2378H73.1181V6.66417H74.736C75.2363 6.66417 75.7033 6.78194 76.1537 6.98385C76.604 7.18576 76.9876 7.43814 77.3212 7.79147C77.6547 8.12798 77.9049 8.51497 78.1051 8.96925C78.3052 9.42354 78.3886 9.89465 78.3886 10.4162V16.2547H80.4901V10.3826C80.5068 9.59179 80.3567 8.83465 80.0565 8.12798Z" fill="white"/>
<path d="M125.106 14.101H127.207V8.26255C127.207 7.74096 127.107 7.25303 126.924 6.81556C126.724 6.36128 126.474 5.97429 126.123 5.63778C125.79 5.30127 125.389 5.03207 124.956 4.83016C124.505 4.62826 124.022 4.54413 123.521 4.54413H115.099V6.66414H123.521C123.738 6.66414 123.938 6.71461 124.122 6.79874C124.322 6.88287 124.489 7.00064 124.622 7.13525C124.772 7.28668 124.872 7.45493 124.956 7.64001C125.039 7.84192 125.089 8.04382 125.089 8.24573L125.106 14.101H116.683C116.466 14.101 116.249 14.0673 116.066 13.9832C115.866 13.8991 115.699 13.7813 115.566 13.6467C115.415 13.4953 115.315 13.327 115.232 13.1419C115.149 12.94 115.115 12.7381 115.115 12.5194C115.115 12.3007 115.149 12.0988 115.232 11.9137C115.315 11.7118 115.432 11.5435 115.566 11.4089C115.716 11.2575 115.882 11.1565 116.066 11.0724C116.266 10.9883 116.466 10.9378 116.683 10.9378H124.055V8.78414H116.683C116.166 8.78414 115.682 8.8851 115.249 9.07018C114.798 9.27208 114.415 9.52446 114.081 9.8778C113.748 10.2143 113.481 10.6181 113.281 11.0556C113.08 11.5099 112.997 11.9978 112.997 12.5026C112.997 13.0073 113.097 13.4953 113.281 13.9496C113.481 14.4038 113.731 14.7908 114.081 15.1273C114.415 15.4638 114.815 15.7162 115.249 15.9181C115.699 16.12 116.183 16.2042 116.683 16.2042H125.106V14.101Z" fill="white"/>
<path d="M141.533 14.101H143.651V4.54413H141.55L141.533 14.101H135.745C135.245 14.101 134.761 14 134.311 13.7981C133.877 13.5962 133.494 13.327 133.16 12.9905C132.827 12.654 132.576 12.267 132.376 11.8127C132.193 11.3584 132.093 10.8873 132.093 10.3657V4.54413H129.991V10.3826C129.991 11.1902 130.141 11.9473 130.442 12.654C130.742 13.3607 131.159 13.9832 131.659 14.5048C132.176 15.0264 132.793 15.447 133.494 15.7667C134.194 16.0696 134.945 16.221 135.729 16.221H141.516V14.101H141.533Z" fill="white"/>
<path d="M60.5933 0.993958H58.4912V3.11396H60.5933V0.993958Z" fill="white"/>
<path d="M164.001 4.54416H161.898V6.66417H164.001V4.54416Z" fill="white"/>
<path d="M159.78 4.54419H156.628V0.287354H154.51V4.54419H151.357V6.6642H154.51V16.2379H156.628V6.6642H159.78V4.54419Z" fill="white"/>
</g>
<defs>
<clipPath id="clip0_2141_12659">
<rect width="134.765" height="20.3588" fill="white" transform="translate(29.2354 0.287292)"/>
</clipPath>
</defs>
</svg>
