<svg width="888" height="167" viewBox="0 0 888 167" fill="none" xmlns="http://www.w3.org/2000/svg">
<path d="M316.353 52.6887C307.773 44.1087 297.433 39.8087 285.343 39.8087C273.253 39.8087 262.933 44.0787 254.403 52.6087C245.813 61.0987 241.493 71.4086 241.443 83.5486V149.699C241.443 152.189 242.363 154.349 244.193 156.179C246.023 158.009 248.183 158.919 250.673 158.919H250.893C253.383 158.919 255.543 158.009 257.373 156.179C259.203 154.349 260.113 152.189 260.113 149.699V119.979C265.853 125.059 274.263 127.599 285.343 127.599C297.433 127.599 307.773 123.309 316.353 114.719C324.943 106.139 329.233 95.7986 329.233 83.7086C329.233 71.6186 324.943 61.2787 316.353 52.6887ZM303.173 101.389C298.243 106.309 292.303 108.779 285.343 108.779C278.383 108.779 272.363 106.309 267.433 101.389C262.553 96.4587 260.113 90.5086 260.113 83.5486C260.113 76.5886 262.553 70.5687 267.433 65.6487C272.363 60.7687 278.333 58.3287 285.343 58.3287C292.353 58.3287 298.293 60.7687 303.173 65.6487C308.103 70.5687 310.563 76.5386 310.563 83.5486C310.563 90.5586 308.103 96.4587 303.173 101.389Z" fill="#ffffff"/>
<path d="M414.323 42.5587C412.593 40.7287 410.443 39.8087 407.843 39.8087H407.693C405.153 39.8087 402.973 40.7287 401.143 42.5587C399.313 44.3787 398.403 46.5687 398.403 49.1087V90.7887C398.403 95.8186 396.643 100.119 393.143 103.669C389.583 107.179 385.293 108.929 380.263 108.929C375.233 108.929 370.863 107.179 367.303 103.669C363.803 100.119 362.053 95.8186 362.053 90.7887V49.1087C362.053 46.5687 361.133 44.3787 359.303 42.5587C357.473 40.7287 355.313 39.8087 352.833 39.8087H352.603C350.113 39.8087 347.953 40.7287 346.123 42.5587C344.293 44.3787 343.383 46.5687 343.383 49.1087V90.7887C343.383 100.899 346.983 109.569 354.203 116.779C361.413 123.989 370.103 127.599 380.263 127.599C390.423 127.599 399.033 123.989 406.243 116.779C413.463 109.569 417.073 100.899 417.073 90.7887V49.1087C417.073 46.5687 416.153 44.3787 414.323 42.5587Z" fill="#ffffff"/>
<path d="M450.973 11.2387C449.143 9.45867 446.983 8.56866 444.493 8.56866H444.263C441.773 8.56866 439.613 9.45867 437.783 11.2387C435.953 13.0687 435.043 15.2487 435.043 17.7887V118.379C435.043 120.969 435.953 123.129 437.783 124.859C439.613 126.689 441.773 127.599 444.263 127.599H444.493C446.983 127.599 449.143 126.689 450.973 124.859C452.793 123.129 453.713 120.969 453.713 118.379V17.7887C453.713 15.2487 452.793 13.0687 450.973 11.2387Z" fill="#ffffff"/>
<path d="M518.284 83.8587C515.334 81.0687 510.844 78.7987 504.794 77.0787C497.324 75.0987 493.084 73.8286 492.064 73.2686C489.124 71.7386 487.644 69.4586 487.644 66.4086C487.644 64.2186 488.414 62.3386 489.934 60.7686C491.454 59.2386 493.334 58.4787 495.574 58.4787H510.354C512.894 58.4787 515.084 57.5686 516.914 55.7386C518.744 54.0086 519.654 51.8487 519.654 49.2587V49.1087C519.654 46.5687 518.744 44.3787 516.914 42.5587C515.084 40.7287 512.894 39.8087 510.354 39.8087H496.334C489.024 39.8087 482.744 42.4286 477.514 47.6586C472.334 52.8386 469.744 59.0886 469.744 66.4086C469.744 73.7286 471.844 79.7387 476.064 83.8587C479.014 86.7487 483.504 89.0887 489.554 90.8687C497.324 93.0487 501.594 94.3186 502.354 94.6786C505.254 96.0986 506.704 98.2087 506.704 100.999C506.704 103.239 505.934 105.119 504.414 106.639C502.894 108.169 501.014 108.929 498.774 108.929H478.124C475.634 108.929 473.474 109.839 471.644 111.669C469.814 113.499 468.904 115.689 468.904 118.229V118.379C468.904 120.969 469.814 123.129 471.644 124.859C473.474 126.689 475.634 127.599 478.124 127.599H498.014C505.324 127.599 511.604 125.009 516.834 119.829C522.014 114.589 524.604 108.319 524.604 100.999C524.604 93.6787 522.494 87.8687 518.284 83.8587Z" fill="#ffffff"/>
<path d="M652.533 19.0087C651.613 18.1487 650.523 17.7087 649.253 17.7087H649.023C647.753 17.7087 646.663 18.1487 645.743 19.0087C644.833 19.9187 644.373 21.0387 644.373 22.3587V122.949C644.373 124.219 644.833 125.309 645.743 126.229C646.663 127.139 647.753 127.599 649.023 127.599H649.253C650.523 127.599 651.613 127.139 652.533 126.229C653.443 125.309 653.903 124.219 653.903 122.949V22.3587C653.903 21.0387 653.443 19.9187 652.533 19.0087Z" fill="#ffffff"/>
<path d="M733.033 60.4587C725.353 52.7887 716.083 48.9587 705.213 48.9587C694.343 48.9587 685.073 52.7887 677.403 60.4587C669.723 68.1387 665.893 77.4087 665.893 88.2787C665.893 99.1487 669.723 108.419 677.403 116.089C685.073 123.759 694.343 127.599 705.213 127.599C715.123 127.599 725.053 123.179 735.013 114.339V122.949C735.013 124.219 735.463 125.309 736.383 126.229C737.293 127.139 738.393 127.599 739.663 127.599H739.883C741.153 127.599 742.253 127.139 743.163 126.229C744.083 125.309 744.533 124.219 744.533 122.949V88.2787C744.533 77.4087 740.703 68.1387 733.033 60.4587ZM726.243 109.389C720.453 115.179 713.443 118.069 705.213 118.069C696.983 118.069 689.943 115.179 684.103 109.389C678.313 103.549 675.423 96.5087 675.423 88.2787C675.423 80.0487 678.313 73.0887 684.103 67.2487C689.943 61.4087 696.983 58.4787 705.213 58.4787C713.443 58.4787 720.503 61.4087 726.243 67.2487C732.093 73.0887 735.013 80.0987 735.013 88.2787C735.013 96.4587 732.093 103.549 726.243 109.389Z" fill="#ffffff"/>
<path d="M822.333 60.4587C814.663 52.7887 805.393 48.9587 794.513 48.9587C784.563 48.9587 774.623 53.3787 764.723 62.2187V22.3587C764.723 21.0387 764.263 19.9187 763.353 19.0087C762.433 18.1487 761.343 17.7087 760.073 17.7087H759.843C758.573 17.7087 757.483 18.1487 756.563 19.0087C755.653 19.9187 755.193 21.0387 755.193 22.3587V88.5087C755.243 99.2787 759.103 108.499 766.783 116.169C774.403 123.789 783.643 127.599 794.513 127.599C805.383 127.599 814.663 123.759 822.333 116.089C830.003 108.419 833.843 99.1487 833.843 88.2787C833.843 77.4087 830.003 68.1387 822.333 60.4587ZM815.553 109.539C809.813 115.379 802.793 118.299 794.513 118.299C786.233 118.299 779.253 115.379 773.413 109.539C767.613 103.699 764.723 96.6887 764.723 88.5087C764.723 80.3287 767.613 73.2387 773.413 67.3987C779.253 61.5587 786.283 58.6387 794.513 58.6387C802.743 58.6387 809.813 61.5587 815.553 67.3987C821.393 73.2387 824.313 80.2787 824.313 88.5087C824.313 96.7387 821.393 103.699 815.553 109.539Z" fill="#ffffff"/>
<path d="M882.954 91.7787C880.624 89.4987 876.784 87.5887 871.454 86.0687C863.674 83.9887 859.134 82.6087 857.814 81.9487C853.234 79.5087 850.954 75.8587 850.954 70.9787C850.954 67.5787 852.174 64.6287 854.614 62.1387C857.044 59.6987 859.994 58.4787 863.454 58.4787H878.234C879.554 58.4787 880.674 58.0287 881.584 57.1087C882.504 56.1987 882.954 55.1087 882.954 53.8287V53.6787C882.954 52.3587 882.504 51.2387 881.584 50.3287C880.674 49.4087 879.554 48.9587 878.234 48.9587H864.214C858.114 48.9587 852.904 51.1187 848.594 55.4287C844.324 59.6987 842.194 64.8787 842.194 70.9787C842.194 77.0787 843.844 81.9287 847.144 85.2287C849.584 87.5187 853.414 89.4487 858.644 91.0187C866.724 93.3087 871.244 94.6787 872.214 95.1387C876.834 97.3687 879.144 100.849 879.144 105.579C879.144 109.029 877.924 111.979 875.494 114.419C873.054 116.849 870.104 118.069 866.654 118.069H845.994C844.724 118.069 843.634 118.529 842.724 119.449C841.804 120.359 841.354 121.479 841.354 122.799V122.949C841.354 124.219 841.804 125.309 842.724 126.229C843.634 127.139 844.724 127.599 845.994 127.599H865.884C871.984 127.599 877.194 125.469 881.514 121.199C885.774 116.879 887.914 111.669 887.914 105.579C887.914 99.4887 886.264 94.8787 882.954 91.7787Z" fill="#ffffff"/>
<path d="M615.104 60.5987C608.804 50.0987 598.494 42.7687 586.854 40.5487C584.434 40.0587 582.074 39.8387 579.174 39.8387C555.094 39.8387 535.494 59.5187 535.494 83.7087C535.494 107.899 555.094 127.569 579.174 127.569C583.924 127.569 600.334 126.679 612.284 115.169C614.144 113.379 615.204 110.879 615.204 108.289C615.204 105.699 614.234 103.469 612.464 101.779C610.684 99.9187 608.334 98.9087 605.794 98.8887H605.714C603.214 98.8887 600.834 99.8487 599.004 101.599C594.084 106.339 585.304 108.819 579.174 108.819C567.724 108.819 557.784 100.919 555.004 89.6087L554.604 87.9587H611.774C616.604 87.9587 618.804 83.6187 619.364 82.2887C620.014 80.6587 620.704 78.9587 620.704 77.5887C621.054 71.7287 617.674 65.0887 615.104 60.5987ZM597.544 72.4387H559.364C558.304 72.4387 557.674 71.2687 558.244 70.3787C560.604 66.7587 563.684 63.8987 567.254 61.9587C570.824 60.0087 574.884 58.9687 579.174 58.9687C587.754 58.9687 594.874 63.1587 598.734 70.4787C598.834 70.6787 598.884 70.8887 598.884 71.0987C598.884 71.7987 598.324 72.4387 597.544 72.4387Z" fill="#ffffff"/>
<path d="M95.593 112.419C109.523 112.419 120.823 101.129 120.823 87.1986C120.823 80.2386 118.003 73.9286 113.433 69.3686C108.873 64.7986 102.563 61.9786 95.593 61.9786C88.623 61.9786 82.3231 64.7986 77.7631 69.3686C73.1931 73.9286 70.373 80.2386 70.373 87.1986C70.373 94.1586 73.1931 100.469 77.7631 105.039C82.3231 109.599 88.633 112.429 95.593 112.429V112.419Z" fill="#FFffff"/>
<path d="M189.633 118.609C195.203 139.079 183.193 160.469 162.653 165.769C155.903 167.509 148.533 167.449 141.193 165.059L74.5933 143.429C74.0533 143.189 73.6233 142.859 73.2933 142.479C71.2833 140.239 72.6733 136.159 76.1833 136.159H95.5933C123.453 136.159 146.083 113.809 146.553 86.0687V85.1887C146.553 77.6087 144.903 70.4187 141.933 63.9487C139.833 59.3787 137.083 55.1687 133.783 51.4487C126.883 43.6387 117.633 37.9687 107.133 35.5387C105.283 35.1087 103.383 34.7887 101.453 34.5587C99.4133 34.3187 97.3333 34.2087 95.2233 34.2287C67.1333 34.4187 44.6133 57.6087 44.6133 85.6987L44.1733 143.749V163.159C44.1733 166.659 40.1033 168.049 37.8533 166.049C37.4733 165.709 37.1533 165.279 36.9033 164.749L1.86331 51.3987C-3.43669 34.2287 3.38331 15.4387 18.7633 6.14866C24.6833 2.56866 31.6333 0.498657 39.1333 0.498657H127.613C145.883 0.498657 161.563 12.8487 165.913 30.2287L189.623 118.599L189.633 118.609Z" fill="#FFffff"/>
</svg>
