<svg xmlns:xlink="http://www.w3.org/1999/xlink" xmlns="http://www.w3.org/2000/svg" width="163.448" height="35.289" viewBox="0 0 163.448 35.289">
  <g fill="#0062ff">
    <path data-name="Path 1" d="M6.179 22.538v12.01H0V0h10.725c9.243 0 13.4 3.311 13.4 10.775 0 12.157-11.615 11.466-11.615 11.466s3.015 7.76 6.87 7.76c1.778 0 3.361-1.384 4.052-4.6h5.14c0 4-3.212 9.885-9.192 9.885-8.655.003-13.201-12.748-13.201-12.748Zm5.238-5.881h.248c3.706 0 5.782-1.978 5.782-5.535 0-3.609-2.076-5.635-5.734-5.635h-.248c-3.656 0-5.782 2.026-5.782 5.535.001 3.558 2.077 5.634 5.734 5.634Z"/>
    <path data-name="Path 2" d="M28.519 22.736c0-11.319 8.65-12.6 12.307-12.6 4 0 7.068 1.235 9.193 3.656 3.015 3.461 3.164 8.749 2.866 10.924H34.598a6.132 6.132 0 0 0 1.582 3.658 6.268 6.268 0 0 0 4.546 1.829h.3a5.8 5.8 0 0 0 5.437-2.966h6.03s-2.076 8.008-11.664 8.008c-2.721-.004-12.31-1.487-12.31-12.509Zm18.485-2.422a5.918 5.918 0 0 0-1.532-3.756 5.829 5.829 0 0 0-4.5-1.631h-.05a6.334 6.334 0 0 0-4.645 1.631 6.036 6.036 0 0 0-1.631 3.756Z"/>
    <path data-name="Path 3" d="M55.159 1.977h6.08v32.62h-6.08Z"/>
    <path data-name="Path 4" d="M63.416 22.736c0-11.319 8.65-12.6 12.307-12.6 4 0 7.068 1.235 9.193 3.656 3.015 3.461 3.164 8.749 2.866 10.924H69.495a6.13 6.13 0 0 0 1.582 3.658 6.268 6.268 0 0 0 4.546 1.829h.3a5.8 5.8 0 0 0 5.436-2.966h6.03s-2.076 8.008-11.664 8.008c-2.723-.004-12.309-1.487-12.309-12.509Zm18.485-2.422a5.929 5.929 0 0 0-1.532-3.756 5.828 5.828 0 0 0-4.5-1.631h-.05a6.333 6.333 0 0 0-4.645 1.631 6.036 6.036 0 0 0-1.631 3.756Z"/>
    <path data-name="Path 5" d="M86.939 11.269h6.624l6.474 14.729 6.475-14.729h6.572L102.26 34.598h-4.546Z"/>
    <path data-name="Path 6" d="M111.75 11.269h6.624l6.474 14.729 6.475-14.729h6.574l-10.824 23.329h-4.547Z"/>
    <path data-name="Path 7" d="M140.417 31.682a11.9 11.9 0 0 1-3.657-8.945 11.714 11.714 0 0 1 3.657-8.9c2.175-2.175 5.833-3.509 9.688-3.509s7.514 1.334 9.688 3.509a11.885 11.885 0 0 1 3.657 8.9 12.429 12.429 0 0 1-3.706 9.044 15.059 15.059 0 0 1-19.326-.1Zm9.49-1.978h.346c4.548 0 7.118-2.521 7.166-6.87 0-4.448-2.619-7.018-7.117-7.018h-.345c-4.548 0-7.167 2.52-7.167 6.87-.005 4.448 2.569 7.018 7.116 7.018Z"/>
  </g>
</svg>