<?xml version="1.0" encoding="UTF-8"?>
<svg version="1.1" xmlns="http://www.w3.org/2000/svg" width="1056" height="208">
<path d="M0 0 C0.82062424 -0.00807175 1.64124847 -0.01614349 2.48674011 -0.02445984 C4.22575801 -0.03826426 5.96480259 -0.04900264 7.70385742 -0.05688477 C9.45198724 -0.06831255 11.20008477 -0.08861516 12.94799805 -0.1184082 C40.88442707 -0.59352657 65.2213422 8.65036635 85.44506836 28.06420898 C100.95529233 43.39139692 111.56549752 62.71987575 115.54296875 84.23828125 C115.72730469 85.10710937 115.91164062 85.9759375 116.1015625 86.87109375 C119.73206421 114.5657174 113.85527058 143.12847346 96.765625 165.51953125 C78.83759004 187.44907841 55.28253899 204.19250236 26.39987183 207.48239136 C21.34452158 207.8579499 16.29674436 207.86166716 11.23046875 207.80078125 C10.4670517 207.7965213 9.70363464 207.79226135 8.91708374 207.78787231 C-3.13693881 207.69450107 -14.14225879 206.67825525 -25.45703125 202.23828125 C-26.15763672 201.97595703 -26.85824219 201.71363281 -27.58007812 201.44335938 C-54.64464173 191.15537121 -74.34067659 170.55236392 -86.88671875 144.78515625 C-92.68155694 131.69631775 -94.84615723 118.16488687 -94.76953125 103.92578125 C-94.7646167 102.83346191 -94.75970215 101.74114258 -94.75463867 100.61572266 C-94.63217566 92.13877022 -93.79416807 84.42295318 -91.45703125 76.23828125 C-91.10511719 74.99046875 -90.75320312 73.74265625 -90.390625 72.45703125 C-82.74674501 46.94181811 -64.6239855 25.16930742 -41.45703125 12.23828125 C-40.47347656 11.67753906 -39.48992188 11.11679688 -38.4765625 10.5390625 C-26.63609517 4.19538432 -13.44415794 0.12780065 0 0 Z M50.57763672 31.5871582 C49.68439697 31.94322144 48.79115723 32.29928467 47.87084961 32.6661377 C44.92207849 33.84432048 41.97855872 35.03503722 39.03515625 36.2265625 C36.98704097 37.04945857 34.93870816 37.87181341 32.89016724 38.69364929 C28.59915457 40.41739926 24.31068338 42.14728808 20.02392578 43.8815918 C14.52585513 46.10545044 9.02201771 48.31460335 3.51623344 50.51928425 C-0.71360309 52.21478167 -4.94042163 53.91769693 -9.1663475 55.62291527 C-11.19487175 56.44047924 -13.22430252 57.25579762 -15.25464249 58.06884193 C-18.0896794 59.20549372 -20.92053524 60.35198071 -23.75048828 61.5012207 C-24.59211517 61.8364122 -25.43374207 62.1716037 -26.3008728 62.51695251 C-27.07187317 62.83240021 -27.84287354 63.1478479 -28.63723755 63.47285461 C-29.30641771 63.74293996 -29.97559788 64.0130253 -30.66505623 64.29129505 C-32.69423117 65.3636318 -33.99853009 66.46899668 -35.45703125 68.23828125 C-35.79919098 70.76307142 -35.79919098 70.76307142 -34.45703125 73.23828125 C-31.99636457 74.9009798 -29.74104301 76.15139678 -27.08203125 77.42578125 C-25.33572198 78.30295649 -23.58964815 79.18060052 -21.84375 80.05859375 C-20.8439209 80.55391602 -19.8440918 81.04923828 -18.81396484 81.55957031 C-15.05875204 83.43744982 -11.32863379 85.36002712 -7.6015625 87.29296875 C9.18082801 95.9884383 26.03198516 104.53744774 42.96704102 112.93188477 C43.65669449 113.27457901 44.34634796 113.61727325 45.05690002 113.97035217 C46.34136646 114.60847519 47.62666255 115.24493212 48.91294861 115.87937927 C51.58681081 117.20865346 54.0522535 118.57780442 56.54296875 120.23828125 C58.69571823 119.92987526 58.69571823 119.92987526 60.54296875 119.23828125 C61.53880635 117.07474837 61.53880635 117.07474837 61.54296875 114.23828125 C59.83116952 111.78853323 58.19142903 109.77542478 56.16796875 107.61328125 C55.05236972 106.36939978 53.93779634 105.12459773 52.82421875 103.87890625 C52.26734375 103.26466797 51.71046875 102.65042969 51.13671875 102.01757812 C47.44276676 97.89357045 44.00906178 93.55377258 40.54296875 89.23828125 C39.93195313 88.50867188 39.3209375 87.7790625 38.69140625 87.02734375 C35.32649628 82.86506175 33.43981681 79.80848609 33.54296875 74.23828125 C35.21383059 68.74830664 39.21037995 65.39016292 43.234375 61.5078125 C45.18791531 59.58732702 46.96896115 57.64397222 48.73046875 55.55078125 C51.04091704 52.82324491 53.47728445 50.30789211 56.0546875 47.8359375 C56.68802002 47.22387451 57.32135254 46.61181152 57.97387695 45.98120117 C59.24962071 44.7554426 60.5356765 43.54030868 61.83276367 42.3371582 C64.73737676 39.53677481 66.35719563 37.86342253 67.52734375 33.92578125 C67.77554264 31.25794478 67.77554264 31.25794478 66.41796875 29.36328125 C61.24192144 26.25765286 55.6102239 29.53667346 50.57763672 31.5871582 Z M-34.45703125 87.23828125 C-36.10258824 88.46637216 -36.10258824 88.46637216 -37.45703125 90.23828125 C-37.24830559 94.60164142 -33.96293902 97.4593679 -31.20703125 100.55078125 C-30.67996582 101.1538208 -30.15290039 101.75686035 -29.60986328 102.37817383 C-28.48459329 103.6650711 -27.35640593 104.94942219 -26.22558594 106.23144531 C-23.82591095 108.95443377 -21.4431768 111.69192385 -19.06347656 114.43237305 C-17.92717792 115.74059053 -16.78857849 117.04681386 -15.64746094 118.35083008 C-15.12829102 118.94661865 -14.60912109 119.54240723 -14.07421875 120.15625 C-13.61644043 120.67985107 -13.15866211 121.20345215 -12.68701172 121.74291992 C-9.91450421 125.11362426 -8.77441512 127.6110227 -8.9055481 132.0328064 C-10.06728484 136.67878907 -13.9138145 139.61116497 -17.296875 142.7890625 C-18.09356094 143.56968552 -18.89024689 144.35030853 -19.71107483 145.15458679 C-22.25399342 147.63959827 -24.82266955 150.09576771 -27.39453125 152.55078125 C-29.95740285 155.02866394 -32.51460228 157.51214826 -35.067276 160.00053406 C-36.65610332 161.54593133 -38.25183114 163.08427146 -39.85496521 164.61482239 C-40.57563675 165.30952133 -41.29630829 166.00422028 -42.03881836 166.7199707 C-42.67613388 167.32871536 -43.3134494 167.93746002 -43.97007751 168.56465149 C-45.68909415 170.27830457 -45.68909415 170.27830457 -46.45703125 173.23828125 C-45.08534887 175.42866548 -45.08534887 175.42866548 -43.45703125 177.23828125 C-38.53064384 176.67283578 -34.25719935 175.61742886 -29.61743164 173.88085938 C-28.97221054 173.64157715 -28.32698944 173.40229492 -27.66221619 173.15576172 C-25.54048658 172.36701653 -23.42264049 171.56835598 -21.3046875 170.76953125 C-19.80299751 170.20898478 -18.30107525 169.64906025 -16.79893494 169.08972168 C-12.8389245 167.61324906 -8.88213436 166.12832851 -4.92596436 164.64160156 C-0.98835731 163.16351334 2.95220294 161.69334551 6.89257812 160.22265625 C11.48965519 158.50673362 16.0858386 156.78858639 20.67782593 155.05908203 C27.46309727 152.50443197 34.25229181 149.97053711 41.07861328 147.52734375 C42.20449356 147.11995972 43.33037384 146.71257568 44.4903717 146.29284668 C46.54589713 145.55093591 48.60545718 144.82006816 50.66966248 144.10266113 C51.55928177 143.77938843 52.44890106 143.45611572 53.36547852 143.12304688 C54.13094498 142.85286743 54.89641144 142.58268799 55.68507385 142.30432129 C57.99849215 140.97690684 58.58356099 139.68216077 59.54296875 137.23828125 C52.68730755 132.30828989 45.39007094 128.43354738 37.87567139 124.63497925 C34.40285546 122.87863609 30.93972202 121.1034142 27.4765625 119.328125 C26.78854553 118.97575272 26.10052856 118.62338043 25.3916626 118.2603302 C19.68058951 115.32730592 14.03672518 112.28203778 8.41796875 109.17578125 C-0.36612648 104.32952917 -9.23630085 99.66347716 -18.14453125 95.05078125 C-18.78916321 94.71609833 -19.43379517 94.38141541 -20.09796143 94.03659058 C-21.92856659 93.08690878 -23.76081449 92.14048735 -25.59375 91.1953125 C-27.18255981 90.3751062 -27.18255981 90.3751062 -28.8034668 89.53833008 C-31.46311432 88.16213907 -31.46311432 88.16213907 -34.45703125 87.23828125 Z " fill="#28C297" transform="translate(94.45703125,0.76171875)"/>
<path d="M0 0 C0.64324219 0.5878125 1.28648437 1.175625 1.94921875 1.78125 C1.94921875 5.89919597 1.93061927 6.30407663 -0.45703125 9.234375 C-1.20146484 10.1625 -1.20146484 10.1625 -1.9609375 11.109375 C-2.48558594 11.74359375 -3.01023437 12.3778125 -3.55078125 13.03125 C-4.07542969 13.6809375 -4.60007812 14.330625 -5.140625 15 C-6.43537082 16.60077665 -7.74195703 18.19196344 -9.05078125 19.78125 C-12.49106942 19.0150348 -14.71845946 17.81889106 -17.61328125 15.78125 C-24.43715257 10.99418344 -30.87234009 11.12986973 -39.05078125 11.78125 C-43.34901093 12.97232569 -46.0993939 14.71093923 -49.05078125 18.03125 C-50.90479381 23.12978453 -50.73634317 27.0330671 -48.80078125 31.96875 C-44.58968032 36.27555776 -39.64454039 37.74284625 -34.05078125 39.78125 C-4.4755479 50.76480586 -4.4755479 50.76480586 2.04296875 62.80078125 C5.59654139 71.66826112 5.11805027 82.61775827 1.98828125 91.5390625 C-2.22385607 100.62841146 -9.46877252 106.99434679 -18.546875 110.921875 C-33.09042067 115.91341954 -49.76088375 115.49053148 -64.05078125 109.78125 C-70.28414214 106.52570756 -75.81244955 102.45327557 -81.05078125 97.78125 C-79.51596831 93.97456705 -77.18556044 91.8850011 -74.11328125 89.21875 C-69.97665657 85.61189366 -69.97665657 85.61189366 -66.05078125 81.78125 C-63.19525362 83.0792171 -61.16969831 84.47998873 -58.92578125 86.65625 C-52.40510441 92.31675245 -45.23765123 94.45714354 -36.6640625 94.10546875 C-30.77563311 93.37491623 -25.82786451 91.57524029 -22.05078125 86.78125 C-20.20121103 83.7223454 -19.84071747 81.81647697 -20.30078125 78.28125 C-20.3884375 77.5284375 -20.47609375 76.775625 -20.56640625 76 C-21.33243804 72.49108021 -22.08764689 70.45029754 -25.09765625 68.359375 C-31.0375329 65.4409385 -36.95238858 63.07280336 -43.2043457 60.9128418 C-55.34103016 56.71313135 -66.42062189 52.54443596 -73.05078125 40.78125 C-76.00288055 32.2390052 -77.36928155 19.05171359 -73.26953125 10.60546875 C-66.28492194 0.15094135 -57.54256679 -5.95054295 -45.25756836 -8.83496094 C-28.96954759 -11.6676602 -13.91845376 -8.73626199 0 0 Z " fill="#25303F" transform="translate(319.05078125,53.21875)"/>
<path d="M0 0 C10.21747919 7.345445 15.2914276 15.94959438 17.34545898 28.22216797 C19 38.81642275 19 38.81642275 19 44 C-0.8 44 -20.6 44 -41 44 C-35.77052373 54.8830772 -35.77052373 54.8830772 -26.1484375 60.5234375 C-19.15749177 62.07415637 -11.72203957 60.6192657 -5.55859375 57.12109375 C-3.56223486 55.6851163 -2.21832483 54.13206845 -1 52 C3.34037775 52.49514018 6.08612375 55.31113872 9.25 58.0625 C9.80429687 58.53494141 10.35859375 59.00738281 10.9296875 59.49414062 C12.291749 60.65658967 13.64659956 61.82747855 15 63 C12.03312615 69.92270565 5.57357483 74.64882346 -1.25 77.4375 C-14.22691894 82.16601785 -29.38914454 81.38588619 -42 76 C-51.91958629 70.84944558 -58.54064629 62.2087578 -62.078125 51.83984375 C-63.15364193 47.36004228 -63.34406049 43.27474791 -63.3125 38.6875 C-63.30758545 37.84662842 -63.3026709 37.00575684 -63.29760742 36.1394043 C-63.04079295 22.53350517 -58.05379647 13.3475427 -48.33203125 3.98046875 C-36.29928947 -6.23829185 -13.6170358 -8.04322322 0 0 Z M-38.5078125 19.8515625 C-40.2214363 22.66765756 -41 24.68793124 -41 28 C-28.46 28 -15.92 28 -3 28 C-4.03626889 21.78238669 -5.33564619 18.34140183 -10.0625 14.1875 C-19.35492721 8.49214139 -31.85234013 11.67878036 -38.5078125 19.8515625 Z " fill="#25303F" transform="translate(543,87)"/>
<path d="M0 0 C6.97715128 4.81018621 11.33225138 10.49244951 13.59857178 18.75271606 C14.50453569 23.82450236 14.23908509 29.01850251 14.1953125 34.15234375 C14.1924826 35.40761368 14.18965271 36.66288361 14.18673706 37.95619202 C14.17747127 41.27214347 14.15954299 44.58781301 14.1373291 47.90368652 C14.11676595 51.29579245 14.10771309 54.68792766 14.09765625 58.08007812 C14.07565121 64.7201392 14.04114964 71.36003109 14 78 C7.4 78 0.8 78 -6 78 C-6.495 74.535 -6.495 74.535 -7 71 C-7.78375 71.7425 -8.5675 72.485 -9.375 73.25 C-16.92572756 79.3992004 -24.7135912 80.67327675 -34.30859375 80.3828125 C-42.82440639 79.49969119 -50.33698884 76.5863282 -56 70 C-61.08364968 63.52439862 -60.89522753 55.90015223 -60 48 C-58.10497606 40.91328325 -53.20959285 36.51892473 -47.07421875 32.84765625 C-34.77843225 26.71134096 -20.45579296 26.4469851 -7 26 C-8.3799759 20.61182138 -9.14932309 17.97655174 -14 15 C-20.02836666 12.05591395 -26.28802708 12.72599993 -32.50390625 14.859375 C-35.74574418 16.24797115 -38.53043753 17.63196455 -41.3125 19.8125 C-43 21 -43 21 -44.87890625 20.77734375 C-47.41924379 19.84635449 -48.72938652 18.67066564 -50.625 16.75 C-51.51058594 15.87601563 -51.51058594 15.87601563 -52.4140625 14.984375 C-54.18415192 12.76958331 -55.07163805 10.66559371 -56 8 C-42.02133509 -4.28741903 -16.95220915 -10.11184406 0 0 Z M-18.75 42.75 C-19.5234375 42.811875 -20.296875 42.87375 -21.09375 42.9375 C-26.62239515 43.49407501 -31.37322984 44.81939941 -36 48 C-38.1519335 51.06487499 -38.97373971 52.89706788 -39.0625 56.625 C-37.87390404 59.28186157 -36.58419164 60.78440035 -34.0625 62.26953125 C-27.95099402 64.43402295 -20.99480097 63.71956267 -15 61.5 C-11.11473158 59.49401902 -9.30291551 57.25044606 -7.640625 53.23828125 C-6.57987683 49.53213062 -6.17786674 45.84192148 -6 42 C-10.30140146 42 -14.47372362 42.33075722 -18.75 42.75 Z " fill="#25303F" transform="translate(397,86)"/>
<path d="M0 0 C0.96550781 0.01353516 1.93101562 0.02707031 2.92578125 0.04101562 C5.28445425 0.07604542 7.64191771 0.12515916 10 0.1875 C9.85913398 2.79202271 9.71251536 5.39600197 9.5625 8 C9.52318359 8.73798828 9.48386719 9.47597656 9.44335938 10.23632812 C9.25618965 13.41821342 9.01279207 16.14912378 8 19.1875 C6.91332031 19.15269531 6.91332031 19.15269531 5.8046875 19.1171875 C-1.89271337 18.76561819 -1.89271337 18.76561819 -9 21.1875 C-11.09739446 26.7805519 -11.40855136 32.19520902 -11.625 38.125 C-11.66367187 38.99962891 -11.70234375 39.87425781 -11.7421875 40.77539062 C-11.8356107 42.91244631 -11.91885398 45.04994294 -12 47.1875 C-6.06 47.1875 -0.12 47.1875 6 47.1875 C6 52.7975 6 58.4075 6 64.1875 C0.06 64.1875 -5.88 64.1875 -12 64.1875 C-12 84.9775 -12 105.7675 -12 127.1875 C-19.26 127.1875 -26.52 127.1875 -34 127.1875 C-34 106.3975 -34 85.6075 -34 64.1875 C-38.62 64.1875 -43.24 64.1875 -48 64.1875 C-48 58.5775 -48 52.9675 -48 47.1875 C-43.38 47.1875 -38.76 47.1875 -34 47.1875 C-34.04125 44.96 -34.0825 42.7325 -34.125 40.4375 C-34.17187156 28.80448482 -33.19486363 17.21807328 -25.17578125 8.1171875 C-17.53506603 0.94182036 -10.13438887 -0.27258011 0 0 Z " fill="#25303F" transform="translate(469,36.8125)"/>
<path d="M0 0 C9.53689587 6.2783394 15.59694036 14.01465716 17.90234375 25.12109375 C18.86615279 30.48851308 18.65234375 35.06151919 18.65234375 40.74609375 C-2.46765625 40.74609375 -23.58765625 40.74609375 -45.34765625 40.74609375 C-41.27663862 54.33390945 -41.27663862 54.33390945 -31.421875 62.7109375 C-24.36713446 66.23166489 -17.33833383 66.79622178 -9.84765625 64.62109375 C-3.90637067 62.45875411 1.13648773 59.01987777 4.65234375 53.74609375 C9.0309363 54.25131597 11.46885599 56.92436597 14.65234375 59.74609375 C13.71583977 64.91379039 10.66722427 67.56850455 6.65234375 70.74609375 C-5.31346517 78.03179433 -15.4836993 79.88231876 -29.34765625 77.74609375 C-39.27794826 75.29638272 -46.11673587 69.65099274 -52.34765625 61.74609375 C-59.0366657 50.2813392 -60.18706022 37.33093975 -57.69921875 24.3671875 C-54.30307664 14.16424774 -47.03371651 5.78982299 -37.90625 0.26953125 C-26.54491021 -5.38743627 -11.43908103 -5.66338794 0 0 Z M-39.34765625 17.74609375 C-43.05918249 23.88291202 -43.05918249 23.88291202 -44.34765625 30.74609375 C-27.84765625 30.74609375 -11.34765625 30.74609375 5.65234375 30.74609375 C4.55002062 23.02983184 3.33186655 18.42561655 -2.16015625 12.93359375 C-14.35519705 4.5644481 -29.83111602 5.51054203 -39.34765625 17.74609375 Z " fill="#25303F" transform="translate(924.34765625,88.25390625)"/>
<path d="M0 0 C4.94666182 3.670496 8.01512654 8.85445641 9.21484375 14.8671875 C9.31861628 16.20596607 9.37966877 17.54854475 9.40429688 18.89111328 C9.4210144 19.67358429 9.43773193 20.4560553 9.45495605 21.26223755 C9.46853149 22.10382416 9.48210693 22.94541077 9.49609375 23.8125 C9.51450317 24.69638397 9.5329126 25.58026794 9.55187988 26.49093628 C9.6105149 29.32461997 9.66321449 32.15836814 9.71484375 34.9921875 C9.96392858 48.30542223 10.37103539 61.5772058 11.21484375 74.8671875 C2.71875 74.96484375 2.71875 74.96484375 0.21484375 74.8671875 C-1.83214039 72.82020336 -1.48561318 68.56307509 -1.78515625 65.8671875 C-2.34203125 66.40988281 -2.89890625 66.95257813 -3.47265625 67.51171875 C-11.91150864 75.42314287 -17.86086225 77.41538077 -29.42138672 77.35546875 C-36.92467107 77.07860695 -42.31639018 75.08911254 -47.87109375 69.9296875 C-53.77054673 63.57272592 -55.22381301 58.41692803 -55.0234375 49.80078125 C-54.53290606 43.76161545 -52.40830499 40.19070822 -48.09765625 36.1171875 C-38.02750808 27.93290344 -24.56680149 27.60870249 -12.09765625 27.2421875 C-11.00259766 27.20351562 -9.90753906 27.16484375 -8.77929688 27.125 C-6.11473825 27.03191498 -3.45016603 26.94608898 -0.78515625 26.8671875 C-1.44515625 25.8771875 -2.10515625 24.8871875 -2.78515625 23.8671875 C-3.55011282 21.11418447 -4.17917843 18.3454628 -4.80859375 15.55859375 C-6.26564154 11.54297003 -8.37375631 9.60829048 -12.12109375 7.640625 C-21.28665598 4.97965532 -31.42301423 6.44191234 -39.78515625 10.8671875 C-40.80034938 11.85175995 -41.80425471 12.84844702 -42.78515625 13.8671875 C-44.66015625 13.9296875 -44.66015625 13.9296875 -46.78515625 12.8671875 C-48.62510181 10.96415809 -50.16950913 8.97650457 -51.78515625 6.8671875 C-50.55513666 3.04045987 -48.25238939 1.64900319 -44.7890625 -0.1875 C-30.83861345 -6.76841359 -13.44742366 -8.53337607 0 0 Z M-39.78515625 42.8671875 C-43.21356559 46.58129762 -43.36458216 49.49509607 -43.19140625 54.39453125 C-42.5278031 58.43357736 -40.85273508 60.24696392 -37.78515625 62.8671875 C-31.76092424 66.5744072 -25.52808341 66.39443168 -18.78515625 64.8671875 C-11.77765042 62.50572393 -8.41348589 58.64159288 -4.87890625 52.26953125 C-3.15174034 48.47593469 -2.66149619 45.27607125 -2.72265625 41.1171875 C-2.73167969 40.31796875 -2.74070312 39.51875 -2.75 38.6953125 C-2.76160156 38.09203125 -2.77320313 37.48875 -2.78515625 36.8671875 C-22.16305211 35.93727776 -22.16305211 35.93727776 -39.78515625 42.8671875 Z " fill="#26313F" transform="translate(754.78515625,90.1328125)"/>
<path d="M0 0 C30.03 0 60.06 0 91 0 C91 3.63 91 7.26 91 11 C90 12 90 12 86.39819336 12.11352539 C84.79540144 12.11336625 83.1926044 12.10767063 81.58984375 12.09765625 C80.74780899 12.0962413 79.90577423 12.09482635 79.03822327 12.09336853 C76.33794665 12.08775263 73.63775172 12.07519748 70.9375 12.0625 C69.11132932 12.05748705 67.28515734 12.05292379 65.45898438 12.04882812 C60.97262458 12.03777804 56.48632616 12.02050279 52 12 C52.00222061 13.31322739 52.00444122 14.62645477 52.00672913 15.97947693 C52.02695802 28.32601074 52.04197092 40.6725412 52.05181217 53.01908779 C52.05704164 59.36730576 52.06414044 65.7155104 52.07543945 72.0637207 C52.08626606 78.18448582 52.09227635 84.30523809 52.09487724 90.42601204 C52.0967319 92.76690943 52.10035329 95.10780609 52.10573006 97.44869804 C52.11293748 100.71508202 52.11399107 103.98141215 52.11352539 107.24780273 C52.11712067 108.226035 52.12071594 109.20426727 52.12442017 110.21214294 C52.1230455 111.09700378 52.12167084 111.98186462 52.12025452 112.89353943 C52.12117631 113.66692374 52.1220981 114.44030806 52.12304783 115.23712826 C52 117 52 117 51 118 C46.71 118 42.42 118 38 118 C38 83.02 38 48.04 38 12 C25.46 12 12.92 12 0 12 C0 8.04 0 4.08 0 0 Z " fill="#25303F" transform="translate(569,53)"/>
<path d="M0 0 C3.4508528 2.58267939 6.1266077 4.7406928 8.53125 8.34765625 C8.53125 9.33765625 8.53125 10.32765625 8.53125 11.34765625 C5.68410623 13.7313115 3.7515643 15.31789249 -0.03125 15.41015625 C-3.24295316 14.01018308 -5.03100822 11.84485515 -7.46875 9.34765625 C-12.81538908 5.65592926 -18.19374031 5.67533378 -24.46875 6.34765625 C-28.60996519 7.67876113 -29.98063518 8.62335684 -32.40625 12.22265625 C-33.56666048 15.63562824 -33.78224232 17.02014238 -32.46875 20.34765625 C-29.69077343 23.6038155 -27.51291984 24.96265556 -23.3984375 26.05859375 C-22.41875 26.33445312 -21.4390625 26.6103125 -20.4296875 26.89453125 C-18.39621407 27.44022285 -16.3623679 27.98452764 -14.328125 28.52734375 C-6.15569168 30.83184192 0.71010486 33.99194382 7.12890625 39.62890625 C9.21951674 43.68201183 9.07539711 47.35471691 8.96875 51.84765625 C8.97583984 52.68941406 8.98292969 53.53117187 8.99023438 54.3984375 C8.92905006 60.37567439 7.81622549 63.64973338 3.91015625 68.26171875 C-2.93407675 74.70854467 -10.67730978 76.35465175 -19.90625 76.78515625 C-30.01318661 76.44923206 -38.99400031 73.12622828 -46.46875 66.34765625 C-47.7371875 65.29578125 -47.7371875 65.29578125 -49.03125 64.22265625 C-50.46875 62.34765625 -50.46875 62.34765625 -50.265625 60.40625 C-49.30415415 57.9224503 -48.31431221 57.06474638 -46.15625 55.53515625 C-45.56199219 55.09558594 -44.96773437 54.65601563 -44.35546875 54.203125 C-42.46875 53.34765625 -42.46875 53.34765625 -40.39453125 53.5625 C-37.41912839 54.77559529 -35.66278191 57.04392275 -33.46875 59.34765625 C-28.51804842 63.65955763 -23.20691814 64.77132296 -16.78125 64.59765625 C-11.79889144 64.05902289 -7.83134916 62.83412806 -4.40625 59.09765625 C-3.14510967 55.3983113 -3.44471423 53.10245407 -4.46875 49.34765625 C-7.5489646 45.44555746 -10.72557421 44.30146531 -15.40625 42.84765625 C-16.0657666 42.63536377 -16.7252832 42.42307129 -17.40478516 42.2043457 C-20.59562765 41.18650443 -23.78483753 40.26542492 -27.02734375 39.421875 C-34.70535007 37.36898049 -40.3658701 34.61824322 -45.46875 28.34765625 C-48.47041039 22.30585264 -48.40254159 15.57285869 -46.46875 9.16015625 C-43.84218906 3.09697352 -38.49768776 -1.11821026 -32.46875 -3.58984375 C-22.04204019 -6.50425396 -9.10559369 -6.09440844 0 0 Z " fill="#26303F" transform="translate(1047.46875,89.65234375)"/>
<path d="M0 0 C4.62 0 9.24 0 14 0 C14.55461914 1.4319873 15.10923828 2.86397461 15.68066406 4.33935547 C17.75254136 9.68836464 19.82514023 15.03709399 21.89794922 20.38574219 C22.79234969 22.69393496 23.68655849 25.00220203 24.58056641 27.31054688 C25.87090606 30.64212619 27.16195113 33.97343142 28.453125 37.3046875 C28.84808167 38.32488983 29.24303833 39.34509216 29.64996338 40.39620972 C32.06069497 46.61351088 34.50960085 52.81417328 37 59 C39.13111997 56.86888003 39.7396732 55.48628415 40.81591797 52.70898438 C41.16322968 51.82045776 41.51054138 50.93193115 41.86837769 50.01647949 C42.23923492 49.05197876 42.61009216 48.08747803 42.9921875 47.09375 C43.37939972 46.09927856 43.76661194 45.10480713 44.16555786 44.0802002 C45.40700438 40.88870314 46.64115498 37.69444255 47.875 34.5 C49.10334575 31.33477745 50.33315513 28.17012617 51.5630188 25.00549316 C52.32783481 23.03584302 53.09147667 21.06573638 53.85372925 19.09509277 C54.89858386 16.39518823 55.94765766 13.69699442 57 11 C57.36933655 10.05261963 57.7386731 9.10523926 58.11920166 8.12915039 C58.4770575 7.22092529 58.83491333 6.3127002 59.20361328 5.37695312 C59.52484161 4.55940552 59.84606995 3.74185791 60.17703247 2.89953613 C61 1 61 1 62 0 C64.35313555 -0.07271741 66.70833668 -0.08370868 69.0625 -0.0625 C70.99802734 -0.04896484 70.99802734 -0.04896484 72.97265625 -0.03515625 C73.97167969 -0.02355469 74.97070312 -0.01195313 76 0 C73.98530224 7.23572378 71.45602801 14.12921852 68.578125 21.0625 C68.15505066 22.0932666 67.73197632 23.1240332 67.29608154 24.18603516 C65.95181677 27.45919966 64.6012807 30.72972647 63.25 34 C61.48199616 38.29069053 59.71691564 42.582576 57.953125 46.875 C57.52729126 47.90955322 57.10145752 48.94410645 56.66271973 50.01000977 C53.6986896 57.23248643 50.82460245 64.48536269 48.05499268 71.78466797 C46.10204209 76.89795791 46.10204209 76.89795791 45 78 C42.64686445 78.07271741 40.29166332 78.08370868 37.9375 78.0625 C36.00197266 78.04896484 36.00197266 78.04896484 34.02734375 78.03515625 C33.02832031 78.02355469 32.02929688 78.01195312 31 78 C27.5794926 71.42747398 24.74475959 64.69618178 21.97265625 57.828125 C21.50186142 56.66931824 21.03106659 55.51051147 20.54600525 54.31658936 C19.30119644 51.251243 18.0590897 48.18482139 16.81842041 45.11779785 C15.07876626 40.81929997 13.3338104 36.52295112 11.58970642 32.22625732 C10.66489718 29.94706111 9.74097851 27.66750323 8.81813049 25.38751221 C8.39096237 24.33311951 7.96379425 23.27872681 7.52368164 22.19238281 C6.9048259 20.66079529 6.9048259 20.66079529 6.27346802 19.0982666 C5.3910183 16.95132263 4.48739146 14.81300767 3.56710815 12.68200684 C3.10853424 11.61744263 2.64996033 10.55287842 2.17749023 9.45605469 C1.75999008 8.50333679 1.34248993 7.5506189 0.91233826 6.56903076 C0 4 0 4 0 0 Z " fill="#25303F" transform="translate(780,86)"/>
<path d="M0 0 C4.29 0 8.58 0 13 0 C13 41.58 13 83.16 13 126 C8.71 126 4.42 126 0 126 C0 84.42 0 42.84 0 0 Z " fill="#25303F" transform="translate(965,39)"/>
<path d="M0 0 C0.77923828 0.01353516 1.55847656 0.02707031 2.36132812 0.04101562 C4.26202404 0.07599776 6.16235834 0.12979041 8.0625 0.1875 C7.92154936 1.8129308 7.77457913 3.43784051 7.625 5.0625 C7.54378906 5.96742187 7.46257813 6.87234375 7.37890625 7.8046875 C7.0625 10.1875 7.0625 10.1875 6.0625 12.1875 C4.763125 12.14625 3.46375 12.105 2.125 12.0625 C-3.9545123 12.08164807 -9.4755565 12.7103339 -14.75 15.875 C-22.26163166 23.81586776 -23.22982331 32.69821594 -23.3515625 43.15234375 C-23.37092865 44.18565323 -23.3902948 45.21896271 -23.4102478 46.28358459 C-23.46973299 49.56397405 -23.51630452 52.84439918 -23.5625 56.125 C-23.60070836 58.35743666 -23.63976174 60.58985902 -23.6796875 62.82226562 C-23.77540899 68.27722683 -23.85955438 73.73225701 -23.9375 79.1875 C-28.2275 79.1875 -32.5175 79.1875 -36.9375 79.1875 C-36.9375 53.4475 -36.9375 27.7075 -36.9375 1.1875 C-32.9775 1.1875 -29.0175 1.1875 -24.9375 1.1875 C-24.2775 3.8275 -23.6175 6.4675 -22.9375 9.1875 C-22.51339844 8.78917969 -22.08929687 8.39085938 -21.65234375 7.98046875 C-21.06582031 7.45066406 -20.47929688 6.92085938 -19.875 6.375 C-19.30652344 5.85292969 -18.73804688 5.33085938 -18.15234375 4.79296875 C-12.18285181 0.46587671 -7.16275581 -0.2393723 0 0 Z " fill="#25303F" transform="translate(683.9375,84.8125)"/>
</svg>
