<?xml version="1.0" encoding="UTF-8"?>
<svg width="248px" height="52px" viewBox="0 0 248 52" version="1.1" xmlns="http://www.w3.org/2000/svg" xmlns:xlink="http://www.w3.org/1999/xlink">
    <title>Logo/lagoon-symbol-color</title>
    <defs>
        <circle id="path-1" cx="25.2631579" cy="25.2631579" r="25.2631579"></circle>
        <path d="M25.2631579,5.68421053 C36.0763119,5.68421053 44.8421053,14.4500038 44.8421053,25.2631579 C44.8421053,36.0763119 36.0763119,44.8421053 25.2631579,44.8421053 C14.4500038,44.8421053 5.68421053,36.0763119 5.68421053,25.2631579 C5.68421053,14.4500038 14.4500038,5.68421053 25.2631579,5.68421053 Z M24.5170128,9.47368421 C24.179282,9.47368421 23.8440296,9.48430351 23.511548,9.50572101 C23.4910648,10.3624183 23.6193751,10.9843307 23.8875076,11.2948416 C13.3111463,13.4486499 12.5034331,24.37028 16.0838891,25.7967622 C19.0711984,20.9537216 25.205912,21.1945217 27.6090937,25.1801739 C29.3346883,28.256663 28.375551,31.1217272 26.9027142,32.9382849 L26.9027142,32.9382849 L26.7401077,33.1322552 C26.6852958,33.1954987 26.6299091,33.2573155 26.5740519,33.3176653 L26.5740519,33.3176653 L26.4051731,33.4942737 C26.3201324,33.5803371 26.234268,33.6630094 26.1479322,33.7421546 L26.1479322,33.7421546 L25.9747365,33.8957021 C25.6853773,34.1436424 25.3933903,34.351387 25.1118245,34.5139044 C20.766613,37.0219241 15.2448874,35.7676248 10.3584826,32.2385626 C12.9321584,37.460398 18.3053922,41.0526316 24.5170128,41.0526316 C33.2308092,41.0526316 40.2947368,33.9834434 40.2947368,25.2631579 C40.2947368,16.5428724 33.2308092,9.47368421 24.5170128,9.47368421 Z" id="path-3"></path>
    </defs>
    <g id="Symbols" stroke="none" stroke-width="1" fill="none" fill-rule="evenodd">
        <g id="Header/980px" transform="translate(-30.000000, -22.000000)">
            <g id="Logo/lagoon-symbol-color" transform="translate(24.000000, 16.000000)">
                <g id="Group-4" transform="translate(6.736842, 6.736842)">
                    <mask id="mask-2" fill="white">
                        <use xlink:href="#path-1"></use>
                    </mask>
                    <use id="Oval" fill="#00B8D4" xlink:href="#path-1"></use>
                    <mask id="mask-4" fill="white">
                        <use xlink:href="#path-3"></use>
                    </mask>
                    <use id="Oval-2" fill="#FFFFFF" xlink:href="#path-3"></use>
                </g>
                <path d="M181.38777,25.1248951 C182.868438,25.1248951 184.205459,25.4228984 185.398834,26.0189049 C186.592208,26.6149113 187.553538,27.4758096 188.282822,28.6015996 L188.282822,28.6015996 L188.282822,25.257341 L190.536974,25.257341 L190.536974,40.5548409 L190.532869,40.9363113 C190.47267,43.7018599 189.750278,45.7655788 188.365695,47.127468 C186.918176,48.5512613 184.735848,49.2631579 181.81871,49.2631579 C180.205445,49.2631579 178.675053,49.025859 177.227534,48.5512613 C175.780015,48.0766635 174.603215,47.4199526 173.697135,46.5811287 L173.697135,46.5811287 L174.890509,44.7931092 L175.177189,45.037153 C175.959676,45.6715852 176.886219,46.1752066 177.956818,46.5480172 C179.161242,46.9674292 180.42644,47.1771352 181.752412,47.1771352 C183.962365,47.1771352 185.58668,46.6639074 186.625357,45.6374518 C187.664035,44.6109961 188.183374,43.0161269 188.183374,40.8528441 L188.183374,40.8528441 L188.183374,38.6343755 L187.996334,38.9047859 C187.293216,39.8760557 186.399758,40.6247429 185.315961,41.1508474 C184.133636,41.7247795 182.824239,42.0117456 181.38777,42.0117456 C179.752405,42.0117456 178.266212,41.653038 176.92919,40.9356228 C175.592169,40.2182076 174.542441,39.2138263 173.780008,37.9224789 C173.017574,36.6311315 172.636357,35.1687082 172.636357,33.5352089 C172.636357,31.9017096 173.017574,30.4448049 173.780008,29.1644947 C174.542441,27.8841844 175.586644,26.8908403 176.912616,26.1844622 C178.238587,25.4780842 179.730305,25.1248951 181.38777,25.1248951 Z M131.413321,20.2641847 C134.810658,20.2641847 138.376186,21.7738255 140.697136,24.1557057 L140.697136,24.1557057 L137.602531,27.9130354 C135.987952,26.0679181 133.667002,24.8602049 131.480595,24.8602049 C127.44415,24.8602049 124.315908,27.9801318 124.315908,32.0729379 C124.315908,36.1657428 127.44415,39.3192165 131.480595,39.3192165 C133.599728,39.3192165 135.920678,38.2456934 137.602531,36.5683143 L137.602531,36.5683143 L140.730772,39.9566203 C138.241633,42.5062373 134.642474,44.1500692 131.211494,44.1500692 C124.18136,44.1500692 118.866706,38.9501929 118.866706,32.1400317 C118.866706,25.3634203 124.282271,20.2641847 131.413321,20.2641847 Z M73.0867155,20.4319249 L79.5113872,38.1450502 L85.9696953,20.4319249 L91.4525317,20.4319249 L82.1014379,43.9152361 L76.6186034,43.9152361 L67.3684211,20.4319249 L73.0867155,20.4319249 Z M98.886314,20.4319249 L110.322904,35.5283387 L110.322904,20.4319249 L115.368458,20.4319249 L115.368458,43.9152361 L110.524726,43.9152361 L99.1217727,28.8523685 L99.1217727,43.9152361 L94.0425823,43.9152361 L94.0425823,20.4319249 L98.886314,20.4319249 Z M161.152496,25.1248951 C163.428748,25.1248951 165.17461,25.6933087 166.390084,26.8301359 C167.605558,27.9669631 168.213295,29.6501296 168.213295,31.8796353 L168.213295,31.8796353 L168.213295,42.6739751 L165.959143,42.6739751 L165.959143,39.9588344 L165.808328,40.2007397 C165.285062,40.9906718 164.556326,41.6164147 163.622118,42.0779686 C162.59449,42.5856778 161.373492,42.8395324 159.959122,42.8395324 C158.014364,42.8395324 156.467397,42.3759718 155.318221,41.4488506 C154.169046,40.5217294 153.594458,39.296605 153.594458,37.7734773 C153.594458,36.2944982 154.130372,35.1024852 155.202199,34.1974383 C156.274026,33.2923914 157.981214,32.839868 160.323764,32.839868 L160.323764,32.839868 L165.859695,32.839868 L165.859695,31.7803009 L165.854097,31.484873 C165.801844,30.128529 165.383819,29.0846592 164.600022,28.3532636 C163.76024,27.5696254 162.533717,27.1778064 160.920451,27.1778064 C159.815475,27.1778064 158.754698,27.3599195 157.73812,27.7241456 C156.721541,28.0883718 155.84861,28.5905625 155.119326,29.2307176 L155.119326,29.2307176 L154.058548,27.4758096 L154.359757,27.2319702 C155.18044,26.5986281 156.140815,26.1004572 157.24088,25.7374574 C158.478454,25.3290825 159.782326,25.1248951 161.152496,25.1248951 Z M203.976643,25.1248951 C205.656207,25.1248951 207.170024,25.5001585 208.518095,26.2506852 C209.866166,27.0012119 210.921419,28.0497418 211.683852,29.396275 C212.446286,30.7428081 212.827503,32.2659358 212.827503,33.965658 C212.827503,35.6653802 212.446286,37.1885079 211.683852,38.5350411 C210.921419,39.8815743 209.866166,40.9356228 208.518095,41.6971866 C207.170024,42.4587505 205.656207,42.8395324 203.976643,42.8395324 C202.297079,42.8395324 200.783261,42.4587505 199.43519,41.6971866 C198.087119,40.9356228 197.026342,39.8815743 196.252858,38.5350411 C195.479375,37.1885079 195.092633,35.6653802 195.092633,33.965658 C195.092633,32.2659358 195.479375,30.7428081 196.252858,29.396275 C197.026342,28.0497418 198.087119,27.0012119 199.43519,26.2506852 C200.783261,25.5001585 202.297079,25.1248951 203.976643,25.1248951 Z M224.47711,25.1248951 C226.156674,25.1248951 227.670492,25.5001585 229.018563,26.2506852 C230.366634,27.0012119 231.421886,28.0497418 232.18432,29.396275 C232.946754,30.7428081 233.327971,32.2659358 233.327971,33.965658 C233.327971,35.6653802 232.946754,37.1885079 232.18432,38.5350411 C231.421886,39.8815743 230.366634,40.9356228 229.018563,41.6971866 C227.670492,42.4587505 226.156674,42.8395324 224.47711,42.8395324 C222.797546,42.8395324 221.283729,42.4587505 219.935658,41.6971866 C218.587587,40.9356228 217.526809,39.8815743 216.753326,38.5350411 C215.979842,37.1885079 215.593101,35.6653802 215.593101,33.965658 C215.593101,32.2659358 215.979842,30.7428081 216.753326,29.396275 C217.526809,28.0497418 218.587587,27.0012119 219.935658,26.2506852 C221.283729,25.5001585 222.797546,25.1248951 224.47711,25.1248951 Z M148.773605,18.1052632 L148.773605,42.6739751 L146.420005,42.6739751 L146.420005,18.1052632 L148.773605,18.1052632 Z M246.73449,25.1248951 C248.922343,25.1248951 250.662681,25.7595317 251.955503,27.0288047 C253.248326,28.2980778 253.894737,30.1468016 253.894737,32.5749762 L253.894737,32.5749762 L253.894737,42.6739751 L251.541137,42.6739751 L251.541137,32.8067565 L251.535828,32.4724083 C251.482738,30.8258886 251.031467,29.5576934 250.182016,28.6678226 C249.275936,27.7186271 247.983114,27.2440293 246.30355,27.2440293 C244.42509,27.2440293 242.938897,27.8014057 241.84497,28.9161586 C240.751044,30.0309115 240.20408,31.5705949 240.20408,33.5352089 L240.20408,33.5352089 L240.20408,42.6739751 L237.850481,42.6739751 L237.850481,25.257341 L240.104632,25.257341 L240.104632,28.4691538 L240.270034,28.2092057 C240.895496,27.2741899 241.729868,26.538571 242.77315,26.0023491 C243.911276,25.4173798 245.231723,25.1248951 246.73449,25.1248951 Z M165.859695,34.594776 L160.390063,34.594776 L160.114736,34.5978155 C157.314851,34.6606325 155.914909,35.6971121 155.914909,37.7072543 C155.914909,38.7226728 156.30165,39.5228667 157.075134,40.107836 C157.848617,40.6928053 158.931494,40.98529 160.323764,40.98529 C161.649736,40.98529 162.787861,40.6817682 163.738141,40.0747245 C164.688421,39.4676809 165.395605,38.5902269 165.859695,37.4423625 L165.859695,37.4423625 L165.859695,34.594776 Z M203.976643,27.1778064 C202.739069,27.1778064 201.628568,27.4592539 200.645139,28.0221489 C199.66171,28.5850439 198.888227,29.3852378 198.324689,30.4227306 C197.761151,31.4602234 197.479382,32.6411992 197.479382,33.965658 C197.479382,35.2901169 197.761151,36.4710927 198.324689,37.5085855 C198.888227,38.5460783 199.66171,39.3462722 200.645139,39.9091672 C201.628568,40.4720622 202.739069,40.7535097 203.976643,40.7535097 C205.214216,40.7535097 206.324717,40.4720622 207.308146,39.9091672 C208.291575,39.3462722 209.059534,38.5460783 209.612022,37.5085855 C210.16451,36.4710927 210.440754,35.2901169 210.440754,33.965658 C210.440754,32.6411992 210.16451,31.4602234 209.612022,30.4227306 C209.059534,29.3852378 208.291575,28.5850439 207.308146,28.0221489 C206.324717,27.4592539 205.214216,27.1778064 203.976643,27.1778064 Z M224.47711,27.1778064 C223.239537,27.1778064 222.129036,27.4592539 221.145607,28.0221489 C220.162178,28.5850439 219.388694,29.3852378 218.825156,30.4227306 C218.261619,31.4602234 217.97985,32.6411992 217.97985,33.965658 C217.97985,35.2901169 218.261619,36.4710927 218.825156,37.5085855 C219.388694,38.5460783 220.162178,39.3462722 221.145607,39.9091672 C222.129036,40.4720622 223.239537,40.7535097 224.47711,40.7535097 C225.714684,40.7535097 226.825185,40.4720622 227.808614,39.9091672 C228.792043,39.3462722 229.560001,38.5460783 230.11249,37.5085855 C230.664978,36.4710927 230.941222,35.2901169 230.941222,33.965658 C230.941222,32.6411992 230.664978,31.4602234 230.11249,30.4227306 C229.560001,29.3852378 228.792043,28.5850439 227.808614,28.0221489 C226.825185,27.4592539 225.714684,27.1778064 224.47711,27.1778064 Z M181.619815,27.1778064 C180.360142,27.1778064 179.227541,27.4426981 178.222013,27.9724817 C177.216484,28.5022652 176.431951,29.2527919 175.868413,30.2240617 C175.304875,31.1953316 175.023106,32.2990473 175.023106,33.5352089 C175.023106,34.7713705 175.304875,35.8750862 175.868413,36.8463561 C176.431951,37.8176259 177.216484,38.5736712 178.222013,39.1144919 C179.227541,39.6553126 180.360142,39.9257229 181.619815,39.9257229 C182.879488,39.9257229 184.017613,39.6553126 185.034192,39.1144919 C186.05077,38.5736712 186.840828,37.8176259 187.404366,36.8463561 C187.967904,35.8750862 188.249673,34.7713705 188.249673,33.5352089 C188.249673,32.2990473 187.967904,31.2008502 187.404366,30.2406175 C186.840828,29.2803848 186.056295,28.5298581 185.050766,27.9890374 C184.045238,27.4482167 182.901587,27.1778064 181.619815,27.1778064 Z" id="Combined-Shape" fill="#000000"></path>
            </g>
        </g>
    </g>
</svg>