<svg width="132" height="32" viewBox="0 0 132 32" fill="none" xmlns="http://www.w3.org/2000/svg"><path d="M0 15.9998C0 24.8222 7.17938 32 16.0017 32C20.4641 32 24.5012 30.1602 27.4051 27.204L23.218 27.2009C21.1353 28.5472 18.6611 29.3383 16.0017 29.3383C8.64554 29.3383 2.66171 23.3552 2.66171 15.9998C2.66171 8.64589 8.64554 2.66206 16.0017 2.66206C23.3564 2.66206 29.341 8.64589 29.341 15.9998C29.341 19.2435 28.1724 22.2166 26.2403 24.5308H29.514C31.0809 22.0582 32.0019 19.1374 32.0019 15.9998C32.0019 7.17665 24.8249 0.00035613 16.0017 0.00035613C7.17938 0.00035613 0 7.17665 0 15.9998Z" fill="url(#paint0_linear_2518_53095)"></path><path d="M9.94935 7.16728L7.5752 9.86895H19.6005L8.34096 21.8489L7.92502 22.3025L10.1493 24.5283H28.9918V21.8243H12.4089L23.6431 9.84436L24.009 9.40075L21.7956 7.18802L21.8171 7.16728H9.94935Z" fill="url(#paint1_linear_2518_53095)"></path><path d="M2.6617 16.0003C2.6617 8.64637 8.64554 2.66177 16.0025 2.66177C23.3564 2.66177 29.3402 8.64637 29.3402 16.0003C29.3402 19.244 28.1716 22.2163 26.2395 24.5312H29.514C31.0809 22.0587 32.0019 19.1379 32.0019 16.0003C32.0019 7.17713 24.8249 6.06743e-05 16.0025 6.06743e-05C7.17937 6.06743e-05 0 7.17713 0 16.0003" fill="white"></path><path d="M21.7944 7.18802L21.7967 7.19035L21.8159 7.16728L21.7944 7.18802ZM19.5993 9.86895L8.33977 21.8489L7.92383 22.3025L10.1481 24.5283L12.4077 21.8243L23.6419 9.84436L24.0078 9.40075L21.7967 7.19035L19.5993 9.86895Z" fill="url(#paint2_linear_2518_53095)"></path><path d="M23.6423 9.84454L24.009 9.40092L21.7956 7.18822L21.8163 7.16746H9.94859L7.5752 9.86914H19.5998L23.6423 9.84454Z" fill="white"></path><path d="M65.4659 16.7042C65.3853 15.2735 64.336 14.608 62.9046 14.608H62.6026C61.0692 14.608 60.0819 15.3941 59.6987 16.7042H65.4659ZM67.9663 18.5397H59.6182C59.9011 20.2939 61.191 21.2215 62.7023 21.2215H62.9858C64.216 21.2215 65.1024 20.7177 65.4253 19.8505H67.8445C67.481 21.8661 65.4856 23.1572 62.864 23.1572C59.5985 23.1572 57.1571 21.3021 57.1571 17.8348C57.0981 14.5877 59.9608 12.6316 62.7632 12.6729C66.03 12.6729 67.9663 14.6479 67.9663 17.6127V18.5397Z" fill="white"></path><path d="M69.3906 12.873H71.7711V14.1647C72.4766 13.2174 73.6053 12.6731 75.1578 12.6731C76.9127 12.6731 78.3243 13.2974 78.9886 14.5676C79.816 13.2771 81.3279 12.6731 83.0225 12.6731C86.1872 12.6731 87.6203 14.4673 87.6203 16.9677V22.9551H85.2399V17.2488C85.2399 15.6366 84.4335 14.6076 82.881 14.6076H82.598C80.9053 14.6076 79.6948 15.9386 79.6948 17.9543V22.9551H77.3162V17.2488C77.3162 15.6366 76.4883 14.6076 74.8552 14.6076H74.5741C72.9607 14.6076 71.7711 15.9386 71.7711 17.9543V22.9551H69.3906V12.873Z" fill="white"></path><path d="M97.2122 16.7042C97.1316 15.2735 96.0841 14.608 94.6534 14.608H94.3507C92.8167 14.608 91.8301 15.3941 91.4468 16.7042H97.2122ZM99.7126 18.5397H91.3663C91.6474 20.2939 92.9391 21.2215 94.451 21.2215H94.7339C95.9623 21.2215 96.8505 20.7177 97.1734 19.8505H99.5926C99.2291 21.8661 97.2337 23.1572 94.6115 23.1572C91.3447 23.1572 88.9053 21.3021 88.9053 17.8348C88.8444 14.5877 91.7089 12.6316 94.5113 12.6729C97.7787 12.6729 99.7126 14.6479 99.7126 17.6127V18.5397Z" fill="white"></path><path d="M101.529 12.873V9.6068H103.91V12.873H107.074V14.829H103.91V20.1324C103.91 20.718 104.131 20.9388 104.716 20.9388H105.892L107.539 22.9551H103.969C102.337 22.9551 101.529 22.1684 101.529 20.7376V14.829" fill="white"></path><path d="M108.951 12.873H111.231V14.8702C111.734 13.4985 112.54 12.873 114.154 12.873H115.827V15.051H114.013C112.299 15.051 111.332 16.0395 111.332 17.8947V22.9551H108.951V12.873Z" fill="white"></path><path d="M117.139 12.8735H119.518V22.9556H117.139V12.8735ZM117.059 8.8421H119.66V11.4022H117.059V8.8421Z" fill="white"></path><path d="M126.576 12.6733C129.419 12.6733 131.396 14.0844 131.718 16.3227H129.299C129.076 15.2537 128.087 14.6084 126.717 14.6084H126.435C124.359 14.6084 123.27 16.1407 123.27 17.9152C123.27 19.6892 124.359 21.2214 126.435 21.2214H126.717C128.068 21.2214 129.056 20.4759 129.299 19.5077H131.718C131.396 21.6052 129.379 23.1577 126.576 23.1577C122.825 23.1577 120.85 21.0202 120.85 17.9152C120.85 14.9314 123.028 12.6733 126.576 12.6733Z" fill="white"></path><path d="M58.2839 10.308L56.8175 8.84162H47.078L45.5058 11.0388H54.41L45.2561 20.7776L44.8027 21.2629L46.4943 22.9551H57.8976L56.0898 20.7573H48.5622L57.6965 11.0191L58.2839 10.308Z" fill="white"></path><defs><linearGradient id="paint0_linear_2518_53095" x1="8.15515" y1="10.0896" x2="42.6923" y2="36.1044" gradientUnits="userSpaceOnUse"><stop stop-color="white"></stop><stop offset="1" stop-color="white"></stop></linearGradient><linearGradient id="paint1_linear_2518_53095" x1="20.7972" y1="15.8478" x2="2.59898" y2="15.8478" gradientUnits="userSpaceOnUse"><stop stop-color="white"></stop><stop offset="1" stop-color="white"></stop></linearGradient><linearGradient id="paint2_linear_2518_53095" x1="15.9657" y1="13.6186" x2="15.9657" y2="4.09121" gradientUnits="userSpaceOnUse"><stop stop-color="white"></stop><stop offset="1" stop-color="white"></stop></linearGradient></defs></svg>
